<?xml version="1.0" encoding="UTF-8" standalone="no"?>
<svg
   xmlns:dc="http://purl.org/dc/elements/1.1/"
   xmlns:cc="http://creativecommons.org/ns#"
   xmlns:rdf="http://www.w3.org/1999/02/22-rdf-syntax-ns#"
   xmlns:svg="http://www.w3.org/2000/svg"
   xmlns="http://www.w3.org/2000/svg"
   xmlns:sodipodi="http://sodipodi.sourceforge.net/DTD/sodipodi-0.dtd"
   xmlns:inkscape="http://www.inkscape.org/namespaces/inkscape"
   sodipodi:docname="Man in moustache.svg"
   inkscape:version="1.0 (4035a4fb49, 2020-05-01)"
   id="svg436"
   version="1.1"
   viewBox="0 0 82.742393 82.709373"
   height="82.709373mm"
   width="82.742393mm">
  <title
     id="title486">Man in moustache</title>
  <defs
     id="defs430" />
  <sodipodi:namedview
     inkscape:window-maximized="1"
     inkscape:window-y="-9"
     inkscape:window-x="-9"
     inkscape:window-height="1001"
     inkscape:window-width="1920"
     fit-margin-bottom="0"
     fit-margin-right="0"
     fit-margin-left="0"
     fit-margin-top="0"
     showgrid="false"
     inkscape:document-rotation="0"
     inkscape:current-layer="layer1"
     inkscape:document-units="mm"
     inkscape:cy="154.54698"
     inkscape:cx="435.77437"
     inkscape:zoom="1.4522885"
     inkscape:pageshadow="2"
     inkscape:pageopacity="0.0"
     borderopacity="1.0"
     bordercolor="#666666"
     pagecolor="#ffffff"
     id="base" />
  <metadata
     id="metadata433">
    <rdf:RDF>
      <cc:Work
         rdf:about="">
        <dc:format>image/svg+xml</dc:format>
        <dc:type
           rdf:resource="http://purl.org/dc/dcmitype/StillImage" />
        <dc:title>Man in moustache</dc:title>
        <cc:license
           rdf:resource="http://creativecommons.org/publicdomain/zero/1.0/" />
      </cc:Work>
      <cc:License
         rdf:about="http://creativecommons.org/publicdomain/zero/1.0/">
        <cc:permits
           rdf:resource="http://creativecommons.org/ns#Reproduction" />
        <cc:permits
           rdf:resource="http://creativecommons.org/ns#Distribution" />
        <cc:permits
           rdf:resource="http://creativecommons.org/ns#DerivativeWorks" />
      </cc:License>
    </rdf:RDF>
  </metadata>
  <g
     transform="translate(102.83884,11.111164)"
     id="layer1"
     inkscape:groupmode="layer"
     inkscape:label="Lager 1">
    <path
       transform="scale(0.26458333)"
       d="m -241.95508,-41.992188 c -10.56319,-0.07064 -22.2566,1.213788 -35.33008,3.84375 -3.85001,0.774493 -11.81879,2.341923 -17.70703,3.484376 -13.30437,2.557804 -31.54221,9.520422 -39.29297,12.041015 -4.5332,1.4841 -18.3404,9.56775 -26.36914,15.4375001 -12.53091,9.1612492 -26.82753,27.0027619 -27.87109,34.7832029 -0.50287,3.748921 0.0554,5.844288 3.87305,14.542969 1.97631,4.503118 6.67312,9.021625 10.33007,9.939453 1.79403,0.45027 2.45294,1.508042 2.96094,4.75 0.3594,2.293761 1.49265,6.869922 2.51758,10.169922 1.77411,5.712189 4.067,20.40371 4.52734,29 0.22855,4.26779 3.97953,12.23649 7.87891,16.74219 2.17746,2.51604 2.41748,3.87822 2.92383,16.5 0.55994,13.95726 2.07759,20.90115 5.73633,26.25781 2.65697,3.89004 8.92755,18.37668 9.57812,22.12695 1.61375,9.30231 14.34815,35.01671 21.57227,43.56055 2.66007,3.14604 5.09255,6.52754 5.40625,7.51562 0.31362,0.98817 0.99095,1.79688 1.5039,1.79688 0.51292,0 0.93164,0.63685 0.93164,1.41602 0,0.77916 0.36965,1.56665 0.82032,1.75 0.45063,0.18333 2.71152,3.13965 5.02539,6.56836 4.63143,6.8628 8.91606,11.26562 10.96093,11.26562 0.7293,0 2.23325,0.48575 3.34375,1.08008 1.88826,1.01057 1.77194,1.21438 -1.81445,3.13086 -4.38385,2.34262 -17.53781,11.62101 -21.26367,14.89648 h 49.37695 c -0.19317,-0.17603 -0.38876,-0.35289 -0.62109,-0.51562 -2.03591,-1.426 -2.13028,-2.24717 -0.96875,-2.16992 0.69692,0.0463 1.84638,0.41509 3.29883,1.17187 0.87027,0.45346 2.07584,0.99456 3.33007,1.51367 h 23.98047 c 3.87973,-1.50051 9.53125,-4.41903 9.53125,-5.19336 0,-0.4186 -1.46251,-0.0284 -3.25,0.86524 -1.78752,0.89365 -5.94998,1.73809 -9.25,1.87695 -3.29998,0.13886 -5.21249,0.0146 -4.25,-0.27539 3.5178,-1.05982 1.62191,-2.12248 -3,-1.68164 -3.53042,0.33673 -4.36488,0.18086 -3.25,-0.60742 1.13821,-0.8048 0.17347,-1.08848 -4,-1.17578 -3.02498,-0.0632 -6.625,-0.47567 -8,-0.91602 -2.04185,-0.6539 -1.58366,-0.83865 2.5,-1.01172 l 5,-0.21289 -5.5,-1.18945 -5.5,-1.1875 3,-1.1211 3,-1.11914 -3.5,-0.17773 c -1.92499,-0.0983 -4.62497,-0.52454 -6,-0.94531 l -2.5,-0.76368 2.5,-1.07226 c 2.48285,-1.06455 2.47769,-1.07176 -0.6914,-1.13477 -3.97539,-0.079 -5.52798,-2.06225 -1.61719,-2.0664 9.09162,-0.008 36.59942,-9.9879 43.26953,-15.69727 4.37106,-3.74147 5.31621,-3.19301 1.92578,1.11719 -1.16277,1.47814 -1.77627,3.00123 -1.36328,3.38476 0.41299,0.38354 0.96137,0.10586 1.21875,-0.61718 0.25735,-0.72305 1.52923,-1.71785 2.82617,-2.21094 1.29691,-0.49309 3.5654,-2.82668 5.04297,-5.18555 1.47757,-2.35886 3.06932,-4.43775 3.53711,-4.62109 0.46779,-0.18334 0.85156,-0.73119 0.85156,-1.2168 0,-0.48561 1.80002,-3.66844 4,-7.07226 2.19999,-3.40383 3.94864,-6.90598 3.88477,-7.78321 -0.0943,-1.29601 -0.20269,-1.26769 -0.57422,0.1543 -0.25153,0.9625 -0.82536,1.75 -1.27539,1.75 -0.45003,0 -1.10024,1.125 -1.44531,2.5 -0.34511,1.375 -1.08566,2.5 -1.64453,2.5 -0.65613,0 -0.62122,-0.73909 0.0996,-2.08594 0.61379,-1.1471 0.8687,-2.33449 0.56445,-2.63867 -0.30418,-0.30418 -0.97811,0.52216 -1.4961,1.83594 -1.0209,2.58953 -12.73751,14.30982 -17.64062,17.64648 -2.92278,1.98899 -14.54039,6.75457 -26.97266,11.0625 -11.95279,4.14177 -28.89799,6.03106 -36.5332,4.07422 -5.13097,-1.31504 -4.93532,-1.01697 -13.06055,-19.70898 -2.95589,-6.80002 -4.33559,-7.68638 -3.40625,-2.18555 0.5093,3.01458 0.39563,4.05429 -0.39062,3.56836 -0.61009,-0.37707 -1.10938,-1.25958 -1.10938,-1.96094 0,-0.70136 -1.80001,-3.84573 -4,-6.98633 -2.19998,-3.14061 -4,-5.93324 -4,-6.20703 0,-0.27379 -0.47013,-1.04079 -1.04492,-1.70508 -4.7571,-5.49789 -19.65733,-38.28806 -18.63867,-41.01757 0.24442,-0.65494 0.92032,0.002 1.50195,1.46093 0.58163,1.45907 1.53524,2.94968 2.11914,3.31055 1.43777,0.88859 1.35109,-0.77392 -0.11718,-2.24219 -0.6488,-0.64879 -1.3039,-3.28239 -1.45508,-5.85156 l -0.27539,-4.66992 1.95508,3.64648 c 2.29315,4.27852 2.51829,5.98203 0.42382,3.21289 -0.80749,-1.06761 -1.45639,-1.51762 -1.4375,-1 0.0609,1.80209 2.74271,4.6176 3.17188,3.33008 0.22307,-0.66922 1.41276,0.48983 2.64258,2.57422 1.22982,2.0844 2.45834,3.56709 2.73047,3.29492 1.28322,-1.2832 -9.85567,-17.61676 -17.50196,-25.66406 -6.16917,-6.49271 -7.34895,-9.73178 -8.5957,-23.59375 -0.34628,-3.85 -0.883,-8.06281 -1.19141,-9.36133 -0.53896,-2.27056 -0.39933,-2.33319 3.60743,-1.65625 3.89629,0.65828 4.37922,0.46959 7.47851,-2.91406 1.82268,-1.98991 4.78875,-4.04009 6.58984,-4.55664 2.81587,-0.80758 3.52575,-0.63055 5.07422,1.27344 1.66281,2.04474 1.67452,2.26685 0.13282,2.89453 -0.91824,0.37386 -2.77358,0.7113 -4.1211,0.75 -1.80937,0.0519 -2.15584,0.36367 -1.32812,1.1914 2.03187,2.03185 19.13229,-1.93187 17.77929,-4.12109 -0.41094,-0.66491 -1.30901,-0.63793 -2.65429,0.082 -2.55742,1.36867 -6.42687,0.45367 -7.25977,-1.7168 -0.74067,-1.93016 0.20051,-3.29182 1.21875,-1.76367 1.9132,2.87128 7.19531,2.49878 7.19531,-0.50781 0,-3.61403 2.14865,-4.06993 4.72852,-1.00391 2.34486,2.78671 2.49833,3.74302 2.91211,18.17578 0.51477,17.95694 0.53931,21.48048 0.18555,26.48438 -0.28785,4.07089 2.34017,7.55282 8.57617,11.35547 4.01571,2.44874 4.59765,2.38583 4.59765,-0.49609 0,-1.65094 -0.70196,-2.56848 -2.26562,-2.96094 -1.24585,-0.31268 -3.76977,-2.12155 -5.60938,-4.01953 l -3.3457,-3.45118 1.72461,-5.1914 c 1.10113,-3.31835 1.49836,-6.50599 1.09766,-8.83789 -0.34477,-2.00635 -0.86605,-8.59844 -1.15821,-14.64844 -0.85477,-17.70826 -1.08214,-18.76374 -4.46875,-20.70312 -1.63604,-0.93692 -2.97461,-2.47711 -2.97461,-3.42188 0,-0.944772 -0.7875,-2.580919 -1.75,-3.636719 -1.18919,-1.304492 -2.07044,-4.85141 -2.75,-11.068359 -0.78187,-7.153032 -1.35703,-9.215853 -2.63281,-9.458984 -1.38149,-0.263222 -1.59112,0.587126 -1.37305,5.537109 0.14181,3.21648 0.57407,7.289461 0.96094,9.050781 0.45245,2.059812 0.31735,3.201172 -0.37695,3.201172 -0.59373,0 -1.07813,-0.723572 -1.07813,-1.607422 0,-1.035001 -0.54841,-1.395766 -1.53906,-1.015625 -0.88891,0.34111 -1.7873,-0.06066 -2.1289,-0.951172 -0.32516,-0.847324 -1.20693,-1.302994 -1.96094,-1.013672 -0.75402,0.28935 -1.3711,0.0408 -1.3711,-0.550781 0,-0.591617 -0.67496,-0.816573 -1.5,-0.5 -0.9137,0.350619 -1.5,0.002 -1.5,-0.892578 0,-0.807742 -0.45,-1.46875 -1,-1.46875 -0.54999,0 -1,0.675001 -1,1.5 0,0.824999 -0.45,1.5 -1,1.5 -0.54999,0 -1,-0.926134 -1,-2.058594 0,-1.132456 -0.45,-1.781337 -1,-1.441406 -0.54999,0.339919 -1.01235,0.02855 -1.03125,-0.691406 -0.0209,-0.8612 -0.49374,-0.70181 -1.3789,0.464844 -1.27094,1.675073 -1.3752,1.659117 -1.88672,-0.296876 -0.51394,-1.965302 -0.7212,-1.996507 -4.06445,-0.599609 -3.12601,1.306137 -3.55607,1.302382 -3.83008,-0.04297 -0.2332,-1.144902 -1.41008,-0.640656 -4.8086,2.064454 -2.47502,1.970004 -4.72485,3.586883 -5,3.591796 -0.27499,0.0046 -0.60549,-3.480449 -0.73437,-7.742187 -0.12885,-4.261731 -0.9225,-10.673049 -1.76367,-14.248047 -3.08618,-13.116072 -4.69711,-25.404867 -3.57032,-27.236328 1.48048,-2.406403 1.36012,-2.763672 -0.93164,-2.763672 -1.09999,0 -2,-0.484418 -2,-1.078125 0,-0.688736 1.13115,-0.83245 3.125,-0.394531 2.15879,0.474141 3.39046,0.267457 3.98438,-0.669922 1.37964,-2.177363 1.0577,-2.705243 -1.85352,-3.041016 -3.0963,-0.357131 -6.02923,-5.206375 -8.96093,-14.816406 -0.92285,-3.024998 -1.84436,-4.73669 -2.04883,-3.804688 -0.2044,0.932009 -0.94203,1.476311 -1.63867,1.208985 -1.68235,-0.64557 -3.85187,6.648465 -3.06641,10.308594 L -378.64648,29 -380.7168,26.638672 c -2.00689,-2.289158 -2.97627,-7.817847 -1.17578,-6.705078 0.49134,0.303662 1.1589,-0.502257 1.48242,-1.791016 0.32346,-1.28877 3.97025,-5.141967 8.10547,-8.5624999 4.13522,-3.4205285 7.51953,-6.6365383 7.51953,-7.1484375 0,-0.5119105 0.70114,-0.9316406 1.5586,-0.9316406 0.93713,0 1.29265,0.4985506 0.89062,1.25 -0.36782,0.6874998 0.5276,-0.1000019 1.99024,-1.75 2.61006,-2.9444409 2.6486,-2.9536995 2.06054,-0.5 -0.58828,2.454531 -0.5535,2.4461315 1.90625,-0.4609375 1.37794,-1.6285115 2.83225,-2.632602 3.23243,-2.2324219 0.40017,0.4001688 0.19575,1.25931785 -0.45508,1.91015628 -2.38341,2.38341162 -1.10491,3.05816442 1.37695,0.7265625 l 2.5625,-2.40820318 -0.49609,2.73242192 C -350.43086,2.2703183 -350.2769,3.5 -349.81641,3.5 c 0.4605,0 0.99311,2.2496907 1.1836,5 0.3815,5.505819 -0.78619,6.935361 -1.42969,1.75 -0.36382,-2.9311521 -0.41812,-2.8479146 -0.5625,0.841797 -0.088,2.250089 0.49792,6.278875 1.30273,8.953125 1.61598,5.369401 1.38048,6.400474 -1.00585,4.419922 -2.20252,-1.82792 -4.15815,-5.846334 -4.98243,-10.240235 -0.38249,-2.038688 -1.05218,-3.485571 -1.49023,-3.214843 -0.43805,0.270731 -0.57568,1.505227 -0.30469,2.742187 0.39602,1.807019 0.28274,1.953267 -0.57812,0.748047 -0.58931,-0.824999 -1.07838,-2.71137 -1.08594,-4.191406 -0.008,-1.4800418 -0.50236,-2.9907324 -1.0957,-3.3574221 -0.7369,-0.455452 -0.88801,0.5562188 -0.47657,3.1914061 0.96125,6.156571 1.59148,7.600495 5.31836,12.197266 2.80464,3.459231 4.01337,4.244612 5.95703,3.873047 1.50169,-0.287071 2.64138,0.06246 2.9668,0.910156 0.2905,0.757009 0.92319,1.376953 1.40625,1.376953 0.48306,0 -0.0137,-1.462503 -1.10352,-3.25 -1.0898,-1.787501 -1.94782,-3.925001 -1.90624,-4.75 0.0668,-1.33333 0.13845,-1.33333 0.64453,0 0.31313,0.824999 1.8739,3.412502 3.46875,5.75 2.40585,3.526159 3.44497,4.247035 6.10156,4.228516 l 3.20312,-0.02344 -2.48437,-1.908203 c -1.60124,-1.230338 -2.71471,-1.533184 -3.13477,-0.853516 -0.82076,1.328039 -5.90138,-7.201578 -5.82617,-9.78125 0.0313,-1.07001 0.81209,-0.0531 1.77149,2.308594 1.56926,3.862768 4.17382,7.612758 4.17382,6.009766 0,-0.368058 -0.9085,-2.413401 -2.01953,-4.544922 -2.85203,-5.4718 -4.21052,-16.9813738 -2.35156,-19.935547 2.12723,-3.3805191 3.44416,-2.70494454 1.66797,0.8554688 -4.4953,9.0110362 4.61162,28.8687922 11.89844,25.9453122 1.26705,-0.508388 1.96718,-1.007731 1.55468,-1.111328 -4.86183,-1.221211 -5.75569,-2.242461 -7.69531,-8.791015 C -337.81338,14.992291 -339.12473,9.3 -339.64453,6 l -0.94531,-6 4.71093,-4.5 c 5.62061,-5.3689203 11.41092,-8.988729 10.47461,-6.548828 -0.32693,0.852019 -0.90643,1.548828 -1.28711,1.548828 -1.66174,0 -3.09375,7.3543603 -3.09375,15.8867188 0,7.2059492 0.468,10.3302732 2.12305,14.1777342 1.99752,4.643327 2.97518,5.53617 5.37695,4.912109 0.55,-0.14286 1.77883,-0.224424 2.73047,-0.18164 0.95169,0.04278 1.96351,-0.300302 2.25,-0.763672 0.28638,-0.46337 1.53261,-0.60462 2.76953,-0.3125 2.01018,0.474697 2.07686,0.38522 0.62696,-0.84375 -2.05512,-1.741962 -3.90428,-7.246846 -3.78711,-11.273438 L -317.60547,9 l 0.95117,3.5 c 1.71436,6.314642 3.11316,9.060035 5.17969,10.166016 1.96018,1.049091 1.9536,0.988043 -0.13867,-1.671875 -2.77674,-3.529883 -2.84924,-5.484018 -0.0879,-2.355469 1.80559,2.045715 1.98577,2.094396 1.35742,0.361328 -1.621,-4.47089 -1.52772,-7.662951 0.50586,-17.4765625 1.17146,-5.6532164 1.91836,-10.4896912 1.66211,-10.7460937 -0.2564,-0.2564108 -1.37869,1.2644986 -2.49414,3.3789062 -2.18306,4.1380114 -2.75153,3.4684207 -1.09375,-1.2871094 0.72555,-2.0813209 2.74461,-3.8787386 6.97265,-6.2031246 3.27387,-1.799823 6.21743,-3.698109 6.53907,-4.21875 0.32179,-0.52063 1.03398,-0.947266 1.58398,-0.947266 0.55015,0 0.72259,0.449999 0.38281,1 -0.97141,1.571781 0.46734,1.182418 4.23243,-1.144531 2.77443,-1.714719 3.63563,-1.878043 4.29296,-0.814453 0.58016,0.938728 1.21244,1.029872 2.14844,0.30664 0.72941,-0.563618 5.12309,-2.53313 9.76367,-4.375 5.99898,-2.381045 8.55431,-2.99344 8.84571,-2.11914 0.26101,0.783012 0.83039,0.897109 1.56445,0.3125 1.39071,-1.10758 11.92252,-4.22983 12.45898,-3.69336 0.20867,0.208653 -0.93351,1.059383 -2.5371,1.888672 -1.60366,0.829293 -3.55878,2.295525 -4.34376,3.259766 -1.28902,1.58358 -1.23231,1.674633 0.57422,0.945312 1.1,-0.44409 3.95702,-1.418804 6.34961,-2.167968 3.80784,-1.191712 4.27894,-1.177722 3.78125,0.11914 -0.71474,1.862646 0.3062,1.845371 2.81055,-0.04883 3.00831,-2.27537 5.20416,-1.823082 2.41797,0.498047 -1.29944,1.081701 -1.88806,1.981858 -1.31055,2 0.57751,0.0183 1.52546,-0.441482 2.10547,-1.021485 0.96045,-0.960462 17.54446,-5.945312 19.7793,-5.945312 1.7571,0 -2.91637,2.936624 -4.72461,2.96875 -1.57077,0.02791 -5.18791,1.746142 -11.94922,5.675781 -1.08284,0.629352 -4.00077,3.10435 -6.48438,5.5 -2.65867,2.564531 -4.05597,3.457905 -3.39648,2.171875 1.35413,-2.64085 1.39993,-3.316406 0.22461,-3.316406 -0.49255,0 -1.84098,1.912498 -2.99805,4.25 -1.38943,2.8070211 -2.11404,3.5709524 -2.13672,2.25 -0.0306,-1.875148 -0.11582,-1.890784 -1.36132,-0.25 -0.73066,0.9624983 -1.79868,1.75 -2.37305,1.75 -0.57438,0 -2.37816,2.3624976 -4.00781,5.25 -1.62966,2.88749834 -4.5959,7.3925039 -6.59375,10.0097656 -1.99786,2.6172586 -3.63282,4.9742054 -3.63282,5.2382814 0,0.264079 1.1782,0.382916 2.61914,0.263672 3.03481,-0.251169 7.78894,-5.63297 11.71485,-13.261719 1.4152,-2.7499994 2.59268,-4.4498043 2.61914,-3.7773438 0.0728,1.9106608 -4.84669,11.7866515 -7.04883,14.1503907 -2.29742,2.4659901 -1.01965,2.7543621 2.99609,0.6777341 3.33634,-1.7252805 4.95534,-4.1052582 8.04688,-11.8359372 1.2726,-3.1822602 2.55071,-5.5489373 2.83984,-5.2597657 0.55113,0.5511194 -1.64326,6.43031136 -4.77539,12.7949219 -1.01484,2.0624995 -1.54668,3.7361358 -1.17968,3.71875 2.77566,-0.1323704 8.51688,-8.89739746 7.52343,-11.4863281 -1.10222,-2.8723314 13.17526,-18.4291099 19.36133,-21.0957029 4.36214,-1.880372 6.48619,-1.687652 2.88672,0.261719 -4.27616,2.315865 -18.55766,15.1149224 -18.58789,16.6601558 -0.009,0.4449631 0.46613,0.5114355 1.05664,0.1464843 0.59051,-0.3649587 0.13213,1.1839171 -1.01953,3.4414063 -1.1515,2.25750215 -1.68979,4.1035156 -1.19531,4.1035156 0.49443,0 1.44431,-1.31749312 2.11132,-2.9277344 0.66698,-1.6102299 2.13479,-3.7477335 3.25977,-4.75 2.04506,-1.8219628 2.0438,-1.820951 0.37695,1.4375 -1.24735,2.4383811 -1.40487,3.74986094 -0.625,5.20703128 0.96567,1.80439932 1.68577,1.43106772 9.78125,-5.07031248 4.80594,-3.8595591 10.64983,-8.2279394 12.98633,-9.7070314 2.3365,-1.479099 4.24902,-3.070395 4.25,-3.535156 0.002,-0.927942 -8.70495,3.925543 -10.82031,6.03125 -1.32711,1.321043 -2.17774,1.672893 -2.17774,0.900391 0,-0.22822 2.30899,-2.253225 5.13086,-4.5 2.82184,-2.24679 4.68942,-4.085938 4.15235,-4.085938 -1.18424,0 -9.28045,5.917421 -16.20703,11.84375 -6.23218,5.3321682 -6.59139,4.8159508 -0.70508,-1.0136719 11.81423,-11.7005591 17.37534,-14.4327691 28.43945,-13.9628901 1.83247,0.07783 3.05412,-0.275522 2.73438,-0.792969 -0.31798,-0.514341 -0.17189,-1.187546 0.32421,-1.494141 0.49607,-0.306591 1.11541,0.563051 1.37696,1.931641 0.43177,2.258857 0.15953,2.488281 -2.94532,2.488281 -2.02554,0 -3.16663,0.407778 -2.80078,1 0.33993,0.550001 1.71603,1 3.0586,1 1.34252,0 2.4414,0.450003 2.4414,1 0,0.550001 0.70114,1 1.5586,1 0.85761,0 1.30973,0.4032 1.00586,0.894531 -0.30365,0.491331 0.57023,1.173415 1.9414,1.517578 3.53923,0.888291 3.09984,2.330152 -0.54687,1.794922 -1.71772,-0.252109 -2.91366,-0.01859 -2.75,0.535157 0.15938,0.538973 -4.11348,3.2753611 -9.4961,6.0820308 -9.82711,5.12421094 -12.96237,5.6123227 -3.71289,0.578125 2.71692,-1.4787326 4.7211,-3.0432019 4.45313,-3.4765626 -0.26786,-0.4333675 0.0396,-1.1137352 0.68359,-1.5117192 0.7313,-0.451912 0.90463,-0.289398 0.45899,0.4316411 -0.96303,1.5582199 -0.0738,1.4524082 3.54687,-0.4199221 3.50268,-1.811278 3.21656,-3.16507 -0.30664,-1.451172 -2.16514,1.053253 -2.2014,1.026447 -0.48633,-0.353515 2.77043,-2.22912 1.25944,-3.637489 -2.60547,-2.429688 -4.64677,1.452129 -14.86652,6.5448885 -17.40625,8.6738284 -3.15307,2.6430872 -6.33789,9.1120556 -6.33789,12.8710937 0,3.2940619 1.97267,4.7639709 2.03125,1.5136719 0.0359,-1.9883792 4.33211,-7.25 5.91993,-7.25 0.57641,0 1.04882,-0.4499994 1.04882,-1 0,-0.55000059 0.53741,-1 1.19532,-1 0.65786,0 -0.187,1.46249902 -1.87891,3.25 -3.35853,3.5482809 -5.33297,6.879854 -5.29102,8.933594 0.0148,0.723658 1.25233,-0.107743 2.75,-1.8496096 3.01558,-3.5071597 10.40841,-8.3916223 20.06446,-13.2578125 5.03361,-2.5366715 6.99092,-3.0433607 9.5,-2.4570313 l 3.16015,0.7382813 -4.16406,0.7539062 c -3.02974,0.5489424 -5.4788,2.0338882 -9,5.4550781 -2.66067,2.5850911 -6.67614,5.888286 -8.92383,7.3398438 -3.74698,2.41982 -9.41211,7.745629 -9.41211,8.847656 0,0.253527 0.78751,0.186807 1.75,-0.148437 0.96254,-0.335248 0.5125,0.329283 -1,1.476562 -3.64134,2.762132 -3.8911,5.711632 -0.2832,3.347657 1.35738,-0.889372 2.99058,-1.443219 3.62891,-1.230469 0.63832,0.21278 -0.92305,1.491307 -3.46875,2.841797 -2.5457,1.350489 -4.62696,2.793588 -4.62696,3.207031 0,0.41345 -0.89996,0.751953 -2,0.751953 -1.09999,0 -2,0.470812 -2,1.044922 0,1.341248 3.10362,0.828978 4.82032,-0.794922 0.72676,-0.6875 2.06458,-1.25 2.97265,-1.25 1.28478,0 1.15455,0.347908 -0.58789,1.568359 -1.23159,0.862628 -1.96049,2.018971 -1.62109,2.56836 0.33955,0.549388 -0.32905,1.244739 -1.48438,1.546875 -1.15532,0.302128 -2.09961,0.947743 -2.09961,1.433594 0,1.758751 3.56679,0.82293 6.5,-1.705079 1.64999,-1.422058 4.23751,-3.318993 5.75,-4.214843 1.5125,-0.895847 2.75,-2.011989 2.75,-2.480469 0,-0.468473 0.82828,-0.587301 1.8418,-0.265625 1.07845,0.342289 3.87801,-0.56 6.75,-2.173828 7.01065,-3.939493 14.15312,-6.277344 19.17774,-6.277344 2.39102,0 4.0935,-0.409878 3.7832,-0.912109 -0.90622,-1.466302 -11.62586,-0.102101 -16.54102,2.105468 -2.48182,1.11467 -5.97419,3.124267 -7.76172,4.466797 -2.07375,1.557521 -3.24584,1.970693 -3.23828,1.140625 0.0118,-1.236412 6.09596,-5.800781 7.73242,-5.800781 0.42539,0 1.28314,-0.813973 1.9043,-1.808594 1.79565,-2.875298 19.63571,-7.1577314 20.95117,-5.029297 0.2849,0.461001 -0.29605,0.851755 -1.29101,0.869141 -1.62966,0.02865 -1.65089,0.152641 -0.21289,1.25 1.72652,1.317558 4.90429,6.950717 4.90429,8.693359 0,0.612858 -1.07171,0.369447 -2.5,-0.566406 -2.6832,-1.758096 -3.48965,-0.474433 -1,1.591797 2.2517,1.86875 1.83927,2.943208 -1.75,4.560547 l -3.25,1.464844 3.42969,-0.261719 c 2.99864,-0.229671 3.78082,0.239588 6.2168,3.736328 3.1528,4.525712 3.53506,5.975811 1.35351,5.138672 -0.9137,-0.350619 -1.5,-0.002 -1.5,0.892578 0,0.807738 -0.82564,1.46875 -1.83398,1.46875 -2.62594,0 -3.28727,1.023262 -1.69141,2.619141 1.60033,1.60032 4.52539,1.84642 4.52539,0.380859 0,-0.550001 -0.7875,-1.007688 -1.75,-1.015625 -1.49166,-0.01306 -1.52872,-0.154291 -0.25,-0.962891 2.28632,-1.44576 4.50359,1.169445 3.14454,3.708985 -0.74703,1.395711 -0.72816,2.287551 0.0684,3.083984 0.82719,0.827218 0.61864,1.312407 -0.79687,1.855469 -3.8157,1.46389 -10.65033,6.664995 -12.26563,9.333984 -2.35778,3.89585 -5.56026,18.232119 -4.77343,21.367188 1.10037,4.384259 2.21147,2.985895 3.32031,-4.177735 0.57955,-3.744139 2.0531,-9.545727 3.27344,-12.892578 1.96902,-5.400219 2.76154,-6.382307 7.05078,-8.716797 3.90554,-2.12564 5.61172,-2.506107 8.88672,-1.982422 4.31973,0.690758 5.44093,1.572808 6.53711,5.148438 0.51586,1.682812 0.28568,2.25 -0.91016,2.25 -2.64185,0 -13.97927,4.103724 -14.76953,5.345703 -0.4043,0.635418 -0.74244,2.341386 -0.75,3.791016 -0.008,1.44963 -0.68814,3.924632 -1.50977,5.5 -2.65973,5.099781 -1.29276,11.605457 3.11719,14.830078 1.78651,1.306329 1.74623,1.670014 -1.125,9.953125 -3.38596,9.76805 -2.97234,11.8652 2.44531,12.40039 3.18955,0.31509 7.05664,-1.94865 7.05664,-4.13086 0,-0.55 -0.82427,-0.25399 -1.83007,0.65625 -3.10901,2.81359 -3.36616,1.84383 -0.71289,-2.68359 3.17508,-5.41832 3.1828,-7.550981 0.043,-13.449221 -1.37499,-2.582933 -2.5,-4.297034 -2.5,-3.808594 0,0.48844 -1.125,-0.324944 -2.5,-1.808594 -1.37499,-1.48365 -2.5,-3.27007 -2.5,-3.96875 0,-2.313898 3.17164,-10.626953 4.05469,-10.626953 0.47709,0 1.32483,1.70175 1.88477,3.78125 0.55997,2.079489 1.73367,4.666991 2.60742,5.75 1.54337,1.913099 1.57387,1.897648 1.06836,-0.53125 -0.28619,-1.375 -0.84113,-4.524999 -1.23242,-7 -0.62589,-3.958738 -0.52746,-4.348961 0.8125,-3.244141 0.85973,0.708839 2.00382,4.411258 2.62695,8.5 2.29943,15.087769 2.2844,15.508569 -1.26367,34.244143 -0.31261,1.65001 -0.28435,2.325 0.0644,1.5 0.3487,-0.825 1.55364,-3.525 2.67578,-6 2.88284,-6.35828 3.5567,-24.019948 1.25391,-32.839846 l -1.6543,-6.33789 2.61524,-3.429688 c 1.43863,-1.886162 2.99598,-3.19556 3.46093,-2.908203 1.57327,0.972317 2.25787,16.872646 1.07813,25.052734 -2.07372,14.378803 -5.95261,28.525543 -9.10156,33.191413 -1.62316,2.40505 -2.95118,5.0212 -2.95118,5.81445 0,1.54369 -3.87636,6.45703 -5.09375,6.45703 -0.40244,0 -1.02167,-1.9125 -1.37695,-4.25 -0.3552,-2.3375 -1.15997,-6.69028 -1.78711,-9.67383 -1.00418,-4.77709 -1.2233,-5.11091 -1.84375,-2.79101 -0.6198,2.31761 0.0709,7.57107 1.70508,12.96484 0.29163,0.9625 0.0499,1.75 -0.53711,1.75 -0.58707,0 -1.06641,-0.64887 -1.06641,-1.44141 0,-0.79254 -0.45,-1.71866 -1,-2.05859 -2.05107,-1.26764 -0.91771,4.44709 1.4375,7.24609 2.136,2.53846 2.4948,4.13059 2.89063,12.82618 0.57294,12.58592 -0.53431,23.14705 -3.29688,31.42773 -2.12481,6.36903 -10.01545,21.32785 -16.75,31.75391 -1.86667,2.88989 -3.07454,5.7717 -2.68359,6.40429 0.41306,0.66808 0.27308,0.88106 -0.33398,0.50586 -1.12245,-0.6937 -2.76089,1.50324 -7.93555,10.64649 -3.11732,5.508 -3.17252,5.77551 -1.05859,5.11914 1.22658,-0.38087 3.39293,-1.97979 4.81445,-3.55469 1.42152,-1.5749 4.234,-4.64728 6.25,-6.82617 2.01596,-2.17888 3.66601,-4.13917 3.66601,-4.35547 0,-0.21631 2.39849,-4.39783 5.33008,-9.29297 5.02322,-8.38785 12.65336,-25.55301 12.6836,-28.53906 0.008,-0.74849 0.62625,-3.16133 1.37304,-5.36133 0.7468,-2.2 1.65802,-7.48065 2.02539,-11.73438 0.58065,-6.72384 0.46604,-7.65643 -0.87304,-7.14257 -1.32749,0.50944 -1.53907,-0.87849 -1.53907,-10.0586 0,-10.09423 0.13453,-10.79245 2.58789,-13.35742 1.42375,-1.4885 3.91212,-5.40703 5.5293,-8.70703 1.61719,-3.3 3.78329,-7.10073 4.81445,-8.44727 l 1.875,-2.44921 0.0859,7.96289 c 0.10764,10.05634 2.41471,25.00423 5.16016,33.43359 1.76976,5.43433 2.01068,7.87121 1.4707,14.85742 -1.02981,13.32346 -3.54954,19.67369 -14.52344,36.59766 -0.82499,1.27231 -4.5222,7.2035 -8.21484,13.17969 -12.10386,19.58917 -32.32976,43.65073 -40.30078,47.94335 -1.68692,0.90852 -2.88845,1.85788 -3.36524,2.5293 h 2.44922 c 6.78748,-4.26106 25.54288,-23.03099 36.33203,-36.75781 4.84759,-6.16747 12.09961,-17.46555 12.09961,-18.84961 0,-0.40611 1.51551,-3.27223 3.36914,-6.36914 8.87974,-14.83588 13.03732,-23.8129 14.41602,-31.13086 1.77638,-9.4291 1.69932,-13.65271 -0.3457,-19.14648 -2.56763,-6.89771 -4.08274,-16.17337 -5.36914,-32.85352 -1.62743,-21.10243 -1.613,-21.72713 0.88867,-36.500002 1.24422,-7.347386 1.97896,-14.986651 1.68945,-17.568359 -0.75137,-6.702573 -5.45635,-18.056989 -8.67383,-20.931641 -2.95956,-2.644218 -2.87198,-2.270611 -7.50976,-31.75 -2.20834,-14.036979 -6.92801,-28.2530387 -11.28516,-33.990234 -1.98822,-2.617932 -3.95184,-5.209765 -4.36328,-5.759766 -4.178,-5.585299 -7.83962,-8.905114 -11.70313,-10.609375 -2.53759,-1.119398 -5.96329,-2.632181 -7.61328,-3.363281 -10.37571,-4.597345 -22.08867,-6.928711 -35.66992,-7.019532 z m 28.16992,17.582032 c 2.25166,0.04118 2.30133,0.122431 0.5,0.826172 -4.2873,1.674931 -11.5,3.815589 -11.5,3.412109 0,-0.94159 8.66652,-4.28099 11,-4.238281 z m -41.6914,3.951172 c -0.65503,-0.02255 -1.49894,0.457683 -1.875,1.066406 -0.47728,0.772263 -0.95432,0.696719 -1.57813,-0.25 -0.73753,-1.119285 -1.10948,-1.079391 -2.125,0.230469 -0.67706,0.873271 -1.72557,1.421376 -2.33203,1.216797 -0.6065,-0.204613 -2.77936,1.48226 -4.82812,3.75 -4.39775,4.8677779 -6.01299,4.5275848 -2.20508,-0.464844 3.316,-4.347489 1.74163,-5.693065 -1.77344,-1.515625 -1.63068,1.937953 -2.5918,2.517639 -2.5918,1.5625 0,-0.834739 0.45863,-1.801036 1.01758,-2.146485 0.55896,-0.34546 0.74112,-1.071391 0.40625,-1.613281 -0.36933,-0.597592 -1.62227,-0.321848 -3.18359,0.701172 -2.35884,1.545574 -2.67069,1.551482 -3.74805,0.07813 -1.03332,-1.413146 -1.40727,-1.433001 -3.08398,-0.164062 -1.0492,0.794046 -2.59096,1.459176 -3.42578,1.476562 -3.02657,0.06341 -8.59945,4.914537 -11.25782,9.7988281 -2.97218,5.4608996 -4.90914,16.1010186 -3.67187,20.1777339 0.61769,2.035881 0.796,1.539588 0.87304,-2.445312 0.12261,-6.3353985 2.39212,-13.8721029 5.67188,-18.828125 3.4735,-5.248808 4.0448,-4.072401 0.82227,1.6933594 -3.16472,5.66226079 -5.39309,13.6450849 -5.40821,19.3847656 -0.0181,6.503017 1.64096,5.052202 2.28711,-2 0.57865,-6.3158696 2.49944,-14.285722 3.25977,-13.5253906 0.227,0.2270097 -0.24712,3.531692 -1.05469,7.34375 -1.8085,8.5377786 -1.86451,11.0794106 -0.25391,11.6992186 0.9269,0.356462 1.15841,-0.845536 0.89649,-4.642578 -0.19419,-2.8182312 -0.0525,-4.832594 0.31445,-4.4765625 0.36703,0.3560088 0.70868,2.0662868 0.75781,3.8007815 0.0559,1.964617 0.85659,3.689694 2.125,4.578125 2.59442,1.8172 3.41552,1.087386 1.23243,-1.095703 -1.3016,-1.301711 -1.5183,-2.669168 -0.99219,-6.2968754 0.86691,-5.9780517 1.41601,-6.5255601 1.41601,-1.4121094 0,2.5661103 0.72247,4.9223768 1.9668,6.4160158 1.0817,1.298415 1.9811,1.824963 2,1.169922 0.0183,-0.655038 -0.4168,-1.468663 -0.9668,-1.808594 -0.54999,-0.339919 -0.98166,-1.603552 -0.95898,-2.808594 0.0376,-2.0595872 0.12471,-2.0341656 1.46875,0.439453 2.48663,4.57654 4.01281,4.173709 3.8125,-1.0078121 -0.17034,-4.4096391 -0.14299,-4.4615565 0.61719,-1.1230469 0.43831,1.925015 0.873,2.824999 0.96484,2 0.11773,-1.0569298 0.52506,-0.856376 1.38086,0.679688 1.08015,1.938642 1.22191,1.606548 1.26953,-3.0000005 0.0294,-2.848989 0.56756,-6.0796862 1.19727,-7.1796875 0.90414,-1.57932838 1.02135,-0.47506919 0.55273,5.25 -0.41945,5.124401 -0.25853,7.25 0.55078,7.25 0.66184,0 1.14453,-1.625663 1.14453,-3.8515625 0,-6.2712485 7.44038,-18.2464033 16.33985,-26.3007815 2.28865,-2.071321 3.62378,-3.783963 2.96875,-3.80664 z m -50.9043,4.072265 c 0.47392,0.05105 0.0361,0.784309 -1.10742,2.355469 -1.89955,2.609919 -2.54936,2.944785 -3.62891,1.865234 -1.18949,-1.189489 -0.71634,-1.991357 1.87891,-3.173828 1.5682,-0.714526 2.48882,-1.086584 2.85742,-1.046875 z M -313.49414,-15 l -1.10938,2.119141 c -0.61099,1.165179 -0.86977,2.360842 -0.57421,2.65625 0.2954,0.2954164 -0.39413,2.2664514 -1.53321,4.380859 -1.92582,3.5749002 -2.02749,3.6334684 -1.43554,0.84375 0.35013,-1.6499981 1.04389,-3.5183356 1.54101,-4.1523438 0.56028,-0.7146816 0.47855,-1.2942722 -0.21484,-1.5253902 -0.64396,-0.214651 -0.17589,-1.210896 1.10351,-2.347657 z m -3.72656,0.550781 c 0.3415,0.06415 0.18923,0.542938 -0.58399,1.47461 -0.69585,0.838291 -0.97561,1.813411 -0.62109,2.167968 0.35459,0.354581 -0.0327,1.3930451 -0.86133,2.3085941 -0.82855,0.9155528 -2.40893,4.102951 -3.51172,7.0820313 L -324.80273,4 l 0.39648,-4.8359375 c 0.21797,-2.6603414 0.014,-4.4573982 -0.45117,-3.9921875 -0.46519,0.4652107 -1.25519,4.44277299 -1.75586,8.8378906 L -327.52344,12 -327.6543,4.875 c -0.19581,-10.6669374 0.52912,-12.9507515 5.19336,-16.380859 2.72993,-2.00757 4.67106,-3.05027 5.24024,-2.94336 z m 4.43554,1.949219 c 0.55,0 1,0.450003 1,1 0,0.550001 -0.45,1 -1,1 -0.54999,0 -1,-0.449999 -1,-1 0,-0.549997 0.45001,-1 1,-1 z m 104.41797,0.455078 c 0.23178,0.04647 0.27323,0.237781 0.0762,0.556641 -0.336,0.5437 -1.03516,0.988281 -1.55273,0.988281 -1.43841,0 -1.12109,-0.716071 0.61133,-1.380859 0.22249,-0.08537 0.41496,-0.138661 0.57226,-0.16211 0.11798,-0.01759 0.21571,-0.01739 0.29297,-0.002 z m -3.96679,1.931641 c 0.60241,0.07082 -1.04451,1.5716559 -5.03907,4.1269529 -3.16475,2.0244466 -6.46364,3.9489784 -7.33203,4.2773437 -2.99985,1.13428922 1.36024,-2.5118457 6.93164,-5.796875 3.14245,-1.8528515 4.97091,-2.6625056 5.43946,-2.6074216 z m -61.20899,1.0332029 c 0.50784,-0.0534 0.39367,0.3935046 -0.25391,1.6035156 -1.24053,2.3180598 -1.98828,2.5372934 -1.98828,0.5839844 0,-0.7661594 0.68571,-1.657029 1.52344,-1.9785157 0.31066,-0.1192123 0.54947,-0.1911844 0.71875,-0.2089843 z M -201.25391,-8.5 c 1.82344,0 -0.26842,1.9603107 -4.05664,3.8007812 -4.97227,2.4157418 -5.87006,2.6473656 -5.03906,1.3027344 C -209.82327,-4.2481253 -202.2452,-8.5 -201.25391,-8.5 Z m -42.78515,3.4042969 c -0.26786,-0.043433 -0.72313,0.1616834 -1.2461,0.5957031 -0.82499,0.6846879 -1.5,1.6960931 -1.5,2.2460938 0,0.5578463 0.66325,0.4483377 1.5,-0.2460938 0.825,-0.6846879 1.5,-1.69414 1.5,-2.2441406 0,-0.2091926 -0.0932,-0.3255026 -0.2539,-0.3515625 z m -101.9043,2.0820312 c 0.10156,0.00219 0.1582,0.067851 0.1582,0.2050781 0,0.5489084 -0.9,1.81310408 -2,2.8085938 -1.09999,0.99550858 -2,1.5846876 -2,1.3085938 0,-0.2760908 0.90001,-1.54028652 2,-2.8085938 0.825,-0.9512362 1.53711,-1.520249 1.8418,-1.5136719 z m 3.5,0.013672 -2.34766,3.5 c -1.29067,1.9250003 -2.4471,3.6423218 -2.57031,3.8164062 -0.12306,0.1740889 -0.47643,-0.093283 -0.78711,-0.5957031 -0.31052,-0.5024277 0.84609,-2.2197335 2.57032,-3.81640622 z m 9.88086,1.046875 c -0.16168,0.067638 -0.35264,1.03318908 -0.63281,2.66992188 -0.84371,4.92882082 0.55294,15.80734702 2.60742,20.31640602 1.60373,3.519753 2.33023,2.155953 0.80859,-1.517578 -0.69464,-1.676991 -1.56553,-7.655056 -1.93554,-13.283203 -0.38913,-5.91859343 -0.57819,-8.2982771 -0.84766,-8.1855469 z m 116.99023,1.52734375 c 0.12955,0.003813 0.23745,0.0421705 0.31446,0.11914063 0.30792,0.30789161 -0.24815,0.86665364 -1.23438,1.2421875 -1.42518,0.54267972 -1.53885,0.42902702 -0.55859,-0.55859376 0.50876,-0.5125634 1.08987,-0.81417447 1.47851,-0.80273437 z m -25.84765,0.27148437 c -0.15157,-0.0229512 -0.25516,0.34221965 -0.28516,1.0703125 -0.0434,1.05417068 0.19317,1.64479608 0.52539,1.31249998 0.33222,-0.3322998 0.36691,-1.1941447 0.0781,-1.9160156 -0.1197,-0.29914864 -0.22742,-0.45302612 -0.31836,-0.46679688 z m 40.82226,2.16406248 c 0.26622,0.014192 0.225,0.088104 -0.1875,0.2167969 -0.82499,0.2573896 -1.9267,0.8744833 -2.44922,1.3710937 C -203.7568,4.0942747 -204.86055,4.5 -205.68555,4.5 c -2.59389,0 0.22347,-1.9304816 3.43164,-2.3515625 0.8164,-0.1071496 1.39004,-0.1528641 1.65625,-0.1386718 z m 6.14258,1.859375 c 0.25502,0.03912 0.14985,0.2012477 -0.33008,0.4824219 -0.82499,0.4833298 -2.85001,1.1705569 -4.5,1.5273437 -1.91973,0.4151131 -2.45985,0.3318834 -1.5,-0.2304687 0.825,-0.4833298 2.84998,-1.1705569 4.5,-1.5273437 0.95985,-0.2075547 1.57507,-0.2910727 1.83008,-0.2519532 z m -152.91015,1.9667969 c 0.26615,0.1396779 0.696,1.4647096 1.02539,3.2207031 0.37644,2.0068383 0.48477,3.8473743 0.24023,4.0917973 -0.24446,0.244442 -0.75246,-1.196276 -1.12891,-3.2031254 -0.37644,-2.0068422 -0.48477,-3.8492902 -0.24023,-4.09375 0.0306,-0.030556 0.0655,-0.035579 0.10352,-0.015625 z m -19.09571,1.9667969 c -0.20281,-0.057839 -0.23244,0.7871602 -0.27539,2.6972655 -0.0594,2.6409 -0.31737,3.131821 -1.04883,2 -0.77151,-1.193998 -0.97303,-1.001724 -0.98437,0.941406 -0.0148,2.361589 -0.064,2.377881 -1.48438,0.5 -1.39638,-1.846038 -1.469,-1.794447 -1.47656,1.058594 -0.0144,4.380348 3.34933,11.070865 6.61133,13.148438 1.55856,0.992671 3.05883,2.108764 3.33398,2.478515 0.275,0.369751 1.62501,0.881185 3,1.136719 1.37503,0.255564 2.59819,0.524699 2.71875,0.599609 0.3916,0.243281 8.28125,-4.051332 8.28125,-4.507812 0,-0.243515 -0.5625,-0.37056 -1.25,-0.28125 -4.6292,0.601122 -9.24694,-4.624211 -11.98046,-13.556641 C -362.83928,8.0583982 -363.2663,7.3769713 -363.83984,9.5 l -0.67383,2.5 -1.07227,-2.5 c -0.45492,-1.0611697 -0.71726,-1.65228 -0.875,-1.6972655 z M -322.82031,11 l 1.34961,4.039062 c 0.74249,2.22138 1.89784,4.921386 2.5664,6 1.11886,1.805012 1.16725,1.761937 0.61914,-0.539062 -0.50188,-2.107011 -0.42297,-2.2249 0.50196,-0.75 0.70186,1.118903 0.76371,2.346725 0.17187,3.404297 -0.81142,1.449921 -1.13616,1.332162 -2.63867,-0.960938 -0.94273,-1.438798 -1.90711,-4.545845 -2.14258,-6.904297 z m -2.58985,4.632812 c 1.46688,1.945841 4.40322,8.867188 3.76172,8.867188 -0.45713,0 -1.35135,-1.0125 -1.98828,-2.25 l -1.1582,-2.25 0.57226,2.25 h 0.002 c 0.31332,1.2375 0.31599,2.25 0.004,2.25 -0.63484,0 -0.63629,5.01e-4 -1.12109,-5.367188 -0.192,-2.127066 -0.22455,-3.702047 -0.0723,-3.5 z m 137.18164,4.00586 c -0.6491,0.0076 -1.38484,0.291091 -1.84375,0.75 -0.61186,0.611883 -1.89601,1.111328 -2.85351,1.111328 -0.95754,0 -2.0196,0.449999 -2.35938,1 -0.95644,1.547546 2.24953,1.183233 5.80078,-0.660156 1.95357,-1.01407 2.67779,-1.837792 1.86133,-2.113282 -0.18391,-0.06205 -0.3891,-0.09044 -0.60547,-0.08789 z m -56.18359,0.140625 c -0.68307,0.04947 -0.28754,1.721213 1.11523,4.390625 2.93968,5.593806 6.53621,16.103087 5.99415,17.515625 -0.30414,0.792589 1.21563,5.013816 3.37695,9.378906 6.68519,13.501799 9.36523,19.544902 8.88281,20.027344 -0.50895,0.508947 -6.74219,-12.09841 -6.74219,-13.636719 0,-0.525309 -0.72878,-0.955078 -1.62109,-0.955078 -1.16602,0 -1.34162,0.351671 -0.62109,1.25 1.94993,2.431181 9.24313,17.197512 9.24218,18.712891 -4.9e-4,0.845457 -1.913,-2.19988 -4.25,-6.767579 -2.33695,-4.567704 -4.38851,-7.638846 -4.55859,-6.824218 -0.17,0.814632 0.84247,3.305518 2.25,5.535156 1.4075,2.229653 2.55859,4.738289 2.55859,5.574219 0,0.835929 0.42068,1.519531 0.9336,1.519531 0.51295,0 1.18819,0.80416 1.5,1.787109 0.312,0.98295 1.46633,1.854615 2.5664,1.9375 2.39577,0.180469 2.45413,-0.331814 0.46485,-4.146484 -0.95399,-1.829371 -1.15422,-3.151357 -0.53321,-3.535156 0.5974,-0.369211 -0.0523,-2.787457 -1.63281,-6.078125 -1.44355,-3.005481 -2.52001,-6.068986 -2.39453,-6.808594 0.12559,-0.739612 -0.7018,-3.323332 -1.83789,-5.740234 -1.13609,-2.416899 -2.06641,-4.668549 -2.06641,-5.003907 0,-0.33538 -0.63545,-2.026648 -1.41211,-3.759765 -0.77661,-1.733122 -2.18925,-5.627346 -3.13867,-8.652344 -1.98618,-6.328142 -5.93744,-14.565959 -7.42968,-15.488281 -0.27332,-0.168919 -0.48886,-0.243838 -0.64649,-0.232422 z m 45.4043,6.189453 c -0.0475,-0.0056 -0.1013,-0.0042 -0.16211,0.0059 -0.4054,0.06705 -1.09178,0.478337 -1.86524,1.160157 -2.7408,2.416138 -7.14095,4.365234 -9.85546,4.365234 -1.10669,0 -1.73432,0.449999 -1.39454,1 0.90176,1.459049 3.16925,1.22762 6.80078,-0.693359 1.76021,-0.931083 4.27451,-1.565533 5.5879,-1.410157 2.60042,0.307639 10.11132,-2.686558 10.11132,-4.03125 0,-0.457647 -1.80216,0.107239 -4.00586,1.25586 -2.43031,1.266758 -4.69252,1.804448 -5.75,1.367187 -1.18526,-0.49008 -1.34396,-0.870057 -0.49414,-1.1875 0.6875,-0.2568 1.25,-0.958558 1.25,-1.558593 0,-0.168762 -0.0802,-0.256577 -0.22265,-0.273438 z m -160.60742,1.117188 c 0.46611,-0.05455 1.64979,0.542046 2.8457,1.460937 1.36686,1.050149 2.00817,1.919546 1.42578,1.931641 -1.44525,0.03035 -5.06151,-2.690436 -4.42383,-3.328125 0.0353,-0.03529 0.0858,-0.05666 0.15235,-0.06445 z m 175.61914,3.935546 c -0.39896,0.02077 -1.33697,0.551313 -2.42383,1.40625 -3.00518,2.363861 -5.36876,2.629878 -7.30078,0.822266 -1.09369,-1.023281 -1.24235,-0.85888 -0.81836,0.90625 0.44326,1.845547 -0.005,2.233621 -3.11328,2.693359 -7.67966,1.135783 -10.13282,1.925512 -10.13282,3.263672 0,0.762569 -0.3375,1.313391 -0.75,1.22461 -0.41249,-0.08882 -2.01613,0.36118 -3.56445,1 -4.14765,1.711279 -8.76249,1.412262 -12.39844,-0.804688 -1.76753,-1.077834 -3.46376,-1.556222 -3.76757,-1.064453 -0.30392,0.491773 -0.0675,1.194122 0.52539,1.560547 0.59293,0.366433 1.47092,1.695124 1.94921,2.953125 0.57336,1.508028 2.16981,2.622557 4.6875,3.273437 4.75707,1.229802 7.41353,0.680583 14.0918,-2.916015 2.89988,-1.56175 5.92663,-2.839844 6.72656,-2.839844 0.7999,0 2.19445,-1.13026 3.09961,-2.511719 0.90516,-1.381451 2.82841,-2.784249 4.27344,-3.117187 3.04679,-0.702021 9.10976,-4.487078 9.12109,-5.69336 9.4e-4,-0.113105 -0.0721,-0.163174 -0.20507,-0.15625 z m 6.34961,2.457032 c -0.41312,-0.01674 -1.20631,0.227609 -2.39063,0.832031 -1.23666,0.631147 -3.51303,1.60765 -5.05859,2.167969 -1.5456,0.560322 -2.55035,1.435835 -2.23438,1.947265 0.31608,0.511431 -0.30875,1.211922 -1.38867,1.554688 -1.19059,0.377922 -1.74534,1.191716 -1.4082,2.070312 0.34333,0.894682 -0.0584,1.449219 -1.05078,1.449219 -1.8968,0 -2.15796,1.647871 -0.35743,2.257812 0.6875,0.232914 -0.54997,1.375441 -2.75,2.539063 -3.13398,1.657618 -3.52521,2.125385 -1.80859,2.160156 1.20503,0.02431 2.46881,-0.40703 2.80859,-0.957031 0.3399,-0.549997 1.71607,-1 3.0586,-1 1.34252,0 2.4414,-0.373016 2.4414,-0.830078 0,-0.457058 1.12501,-1.43404 2.5,-2.169922 1.375,-0.735878 2.5,-1.725689 2.5,-2.199219 0,-0.473522 -1.34501,0.132754 -2.98828,1.347657 -1.64322,1.214889 -3.26896,1.928488 -3.61328,1.583984 -0.75983,-0.75984 3.41244,-7.732422 4.62695,-7.732422 0.47369,0 2.48104,-0.954867 4.46094,-2.123047 2.63413,-1.554123 3.5612,-2.861617 2.65235,-2.898437 z m -201.83399,2.527343 c 0.46268,0.117751 1.92496,1.139237 3.5293,2.484375 2.05761,1.725238 3.20598,3.505904 3,4.652344 -0.31941,1.778109 -0.42232,1.772082 -2.4336,-0.142578 -2.1716,-2.067341 -4.81312,-6.43065 -4.23046,-6.988281 0.0227,-0.02178 0.0687,-0.02264 0.13476,-0.0059 z m 181.41211,1.435547 c 0.82271,0.04045 1.14845,0.515563 0.34766,1.480469 -1.79116,2.158227 -6.5254,3.549677 -8.16992,2.400391 -1.16474,-0.813952 -1.15153,-0.908455 0.084,-0.572266 0.81313,0.22125 2.36138,-0.419449 3.43945,-1.423828 1.36269,-1.26953 3.24106,-1.936768 4.29883,-1.884766 z m -180.00781,5.212891 c 0.17577,0.02867 0.29101,0.256416 0.29101,0.646484 0,0.624102 1.23751,1.806403 2.75,2.626953 1.68813,0.91581 2.13534,1.508637 1.15625,1.533204 -1.86973,0.04693 -5.53139,-3.667824 -4.5664,-4.632813 0.1363,-0.136234 0.26367,-0.191032 0.36914,-0.173828 z m 182.58203,0.933594 c -0.47411,0.02069 -1.45734,0.478948 -2.73242,1.443359 -1.06761,0.807511 -3.11621,1.46875 -4.55274,1.46875 -1.43652,0 -4.50773,1.39463 -6.82617,3.099609 -2.3184,1.704979 -4.88232,2.843968 -5.69726,2.53125 -0.8854,-0.339749 -1.48243,0.01033 -1.48243,0.869141 0,0.866544 -0.59544,1.20844 -1.5,0.861328 -0.82499,-0.316588 -1.5,-0.04879 -1.5,0.59375 0,0.823022 1.40369,0.966114 4.75,0.484375 6.15062,-0.885452 13.25,-4.081955 13.25,-5.964844 0,-0.81126 0.62656,-1.474609 1.39063,-1.474609 0.76407,0 2.45154,-0.885096 3.75,-1.966797 1.53003,-1.274653 1.75995,-1.971908 1.15039,-1.945312 z m -15.12891,0.02148 c 0.1952,0.01496 0.34002,0.05877 0.41797,0.136719 0.18913,0.189112 -0.98817,0.84801 -2.61719,1.46289 -1.62901,0.614892 -2.96289,0.755102 -2.96289,0.3125 0,-0.719205 3.7957,-2.016837 5.16211,-1.912109 z m -13.16211,0.921875 c 0.825,0 2.17501,0.435591 3,0.96875 1.33335,0.861691 1.33335,0.96875 0,0.96875 -0.82499,0 -2.175,-0.435591 -3,-0.96875 -1.3333,-0.861653 -1.3333,-0.96875 0,-0.96875 z m -21.51562,0.382812 c -6.21936,0.03848 -15.53024,0.596606 -18.98438,1.378907 -2.19998,0.498259 -5.57497,1.587273 -7.5,2.419922 -4.44593,1.923072 -14.57611,9.596365 -14.26172,10.802734 0.13089,0.501997 -0.43161,0.655838 -1.25,0.341797 -0.8687,-0.33337 -1.48828,-0.0047 -1.48828,0.791016 0,2.674822 -14.29356,7.704309 -26.5,9.324218 -6.23879,0.827951 -12.58647,2.648982 -19.29101,5.533203 -7.34483,3.159651 -5.52651,4.294413 2.00586,1.251953 4.93466,-1.993203 20.66972,-5.12909 26.28515,-5.238281 0.55,-0.01069 1.05496,1.21797 1.1211,2.730469 0.0662,1.512499 0.59134,6.340186 1.16601,10.728516 0.87391,6.673311 1.47518,8.350379 3.6836,10.25 2.668,2.294902 7.52929,3.115912 7.52929,1.271484 0,-0.550001 0.56464,-1 1.25391,-1 2.11245,0 6.74609,-5.673216 6.74609,-8.259766 0,-4.28951 3.4581,-12.616066 4.7168,-11.357422 0.23717,0.237181 -0.27703,1.800812 -1.14258,3.47461 -2.02647,3.918848 -2.06525,8.142578 -0.0742,8.142578 0.825,0 1.5,-0.626426 1.5,-1.392578 0,-0.766159 0.67501,-1.652177 1.5,-1.96875 0.825,-0.316577 1.5,-1.265151 1.5,-2.107422 0,-1.339075 1.83226,-2.042034 4.27735,-1.640625 0.4278,0.07024 1.02897,-0.522992 1.33398,-1.318359 0.30524,-0.795368 1.18251,-1.204355 1.94922,-0.910157 0.84503,0.324269 1.86054,-0.489524 2.57813,-2.064453 1.23983,-2.72118 3.22113,-3.699687 2.22265,-1.097656 -0.74404,1.938928 1.07697,1.914324 4.08203,-0.05469 1.65483,-1.084283 2.57724,-1.220543 3.05274,-0.451171 0.49179,0.795741 1.07577,0.77652 2.09375,-0.06836 1.11239,-0.92313 1.41015,-0.83991 1.41015,0.392578 0,2.27929 1.47443,2.832898 4.49219,1.685547 1.98554,-0.7549 3.16316,-0.657536 4.64844,0.382813 1.09413,0.766356 2.81017,1.178126 3.8125,0.916015 1.00237,-0.26211 2.1245,0.01342 2.49414,0.611328 0.79744,1.290324 8.55273,1.479753 8.55273,0.208985 0,-1.581192 -2.95011,-3.369388 -4.77343,-2.892578 -0.98166,0.256713 -2.3991,-0.189869 -3.15039,-0.994141 -1.18009,-1.263288 -1.04019,-1.372552 1.02929,-0.800781 1.50444,0.415638 0.90656,-0.247148 -1.60547,-1.779297 -2.20002,-1.341831 -4.69445,-3.069032 -5.54296,-3.839844 -3.1222,-2.83601 -7.77669,-4.13072 -10.70704,-2.976562 -1.51253,0.59571 -4.84807,1.237334 -7.41211,1.425781 -2.56403,0.18844 -5.32771,0.895983 -6.14257,1.572266 -0.81487,0.676289 -2.82587,1.401463 -4.46875,1.609375 -3.69117,0.467149 -10.76843,4.830251 -12.21289,7.529296 -0.5901,1.102549 -1.61223,1.895691 -2.27149,1.763672 -0.6593,-0.13203 -1.93088,1.938564 -2.82617,4.601563 -1.63423,4.860941 -4.15587,8.658203 -5.75,8.658203 -2.81004,0 -5.36443,-6.41534 -6.56836,-16.5 l -0.59766,-5 6.25,-1.830078 c 6.1931,-1.813572 8.69866,-2.951519 22.25,-10.105469 9.55934,-5.046512 17.43723,-7.564453 23.66797,-7.564453 4.01783,0 4.95903,-0.273376 4.05274,-1.179688 -2.08521,-2.085182 -15.61051,0.426514 -27.07813,5.027344 -5.69393,2.284411 -10.59305,4.152344 -10.88672,4.152344 -1.30809,0 6.73498,-4.774484 11.40625,-6.771484 8.60262,-3.67767 16.42674,-5.562326 24.83789,-5.978516 4.40002,-0.21772 8.40867,-0.794201 8.90821,-1.28125 0.42556,-0.414957 -2.19222,-0.57777 -5.92383,-0.554688 z m 68.75,1.707032 c -0.41188,0.01372 -1.08315,0.33869 -1.71289,0.861328 -0.89635,0.743951 -2.72682,1.027292 -4.43555,0.685547 -1.92079,-0.384163 -3.32271,-0.08699 -4.12109,0.875 -0.66531,0.80166 -2.02225,1.457031 -3.01563,1.457031 -0.99337,0 -2.41029,0.60367 -3.14844,1.341797 -2.92072,2.920792 -5.82881,3.879053 -7.52929,2.478515 -1.41918,-1.168865 -1.52538,-1.009183 -0.92383,1.40625 0.62419,2.506319 0.26614,2.934866 -4.43359,5.316407 -2.81193,1.424912 -5.36788,2.337353 -5.67969,2.02539 -0.312,-0.311958 -0.12834,-0.568359 0.4082,-0.568359 0.53654,0 1.84841,-0.682145 2.91602,-1.515625 1.83401,-1.431708 1.77582,-1.484168 -1.0586,-0.943359 l -3,0.574218 2.5,-1.513672 c 1.375,-0.832272 3.24982,-1.290875 4.16602,-1.017578 0.91623,0.273279 1.9259,0.07724 2.24414,-0.4375 0.86355,-1.397265 -2.46517,-2.344613 -3.93945,-1.121093 -0.90097,0.7479 -1.38248,0.739379 -1.63867,-0.0293 -0.2428,-0.72844 -1.68158,-0.539727 -4.34766,0.574218 -2.19141,0.915618 -4.0968,1.613648 -4.23438,1.548829 -1.1574,-0.545719 -3.24358,0.08349 -2.77734,0.83789 0.32508,0.525974 1.25313,0.702386 2.06055,0.392578 1.01325,-0.38883 1.46679,0.110467 1.46679,1.611329 0,1.687435 -0.42918,2.038306 -1.91601,1.566406 -1.05373,-0.334439 -2.20483,-0.140731 -2.5586,0.43164 -0.35372,0.57238 0.0445,1.041016 0.88477,1.041016 0.95467,0 1.30934,0.570204 0.94727,1.513672 -0.31926,0.83201 -0.0246,2.182012 0.65429,3 1.57353,1.895841 6.03345,1.913732 8.54688,0.03516 1.27003,-0.949243 3.19307,-1.257718 5.5625,-0.892578 2.54388,0.392028 4.43732,0.02431 6.36133,-1.236328 3.66814,-2.403492 8.51757,-7.318542 8.51757,-8.632813 0,-0.582689 -1.1867,0.126172 -2.63672,1.576172 -1.44995,1.450001 -3.02498,2.636719 -3.5,2.636719 -0.47495,0 -0.86328,0.603855 -0.86328,1.341797 0,0.737938 -1.84411,1.895134 -4.09765,2.570312 -4.79399,1.436323 -5.96003,0.992962 -2.40039,-0.912109 1.37416,-0.735428 2.49804,-1.71091 2.49804,-2.167969 0,-1.305173 -1.63706,-0.973575 -2.93945,0.595703 -0.65144,0.784902 -3.22647,2.122119 -5.72266,2.972657 -6.22072,2.1196 -4.21563,-0.27696 3.14844,-3.763672 2.97105,-1.40674 5.89181,-3.475855 6.49219,-4.597657 0.60038,-1.121803 1.71995,-2.039062 2.48633,-2.039062 0.76637,0 2.06471,-0.672139 2.88672,-1.494141 0.82201,-0.821998 2.38599,-1.630727 3.47461,-1.796875 1.08865,-0.16614 2.75096,-0.942801 3.69531,-1.726562 0.94439,-0.783761 3.21816,-1.477406 5.05078,-1.541016 3.19071,-0.1108 7.02304,-2.180094 5.97656,-3.226562 -0.0687,-0.06875 -0.17716,-0.09832 -0.31445,-0.09375 z m -27.79297,1.568359 c 0.12566,-2.7e-5 0.23524,0.01785 0.32617,0.05273 0.99625,0.382281 0.87943,0.813279 -0.47265,1.748046 -0.98729,0.68256 -2.9199,1.562604 -4.29493,1.957032 -2.41538,0.69287 -2.39921,0.634193 0.47266,-1.748047 1.43048,-1.186623 3.08912,-2.009573 3.96875,-2.009766 z M -374.40234,48.5 c 0.82499,0 1.7774,0.450003 2.11718,1 0.33993,0.550001 -0.0558,1 -0.88086,1 -0.82499,0 -1.77936,-0.449999 -2.11914,-1 -0.33993,-0.549997 0.0578,-1 0.88282,-1 z m 160.53515,12.123047 c 0.34741,0.01431 0.64639,0.107289 0.8125,0.273437 0.3323,0.332274 -0.25835,0.56878 -1.3125,0.525391 -1.16496,-0.04798 -1.40317,-0.28625 -0.60547,-0.605469 0.36095,-0.144453 0.75807,-0.207665 1.10547,-0.193359 z m -0.55078,2.957031 c 0.45416,0.06243 0.29339,0.685664 -0.36719,1.919922 -1.15339,2.155177 -2.52851,2.572151 -3.46875,1.050781 -0.32288,-0.522398 0.29576,-1.422397 1.375,-2 1.06372,-0.569279 1.79495,-0.89662 2.22852,-0.96289 0.0903,-0.01381 0.16754,-0.01674 0.23242,-0.0078 z m 18.94141,4.951172 c -0.65503,-0.01738 -1.46396,0.411534 -1.79883,0.953125 -0.33472,0.54158 -1.59835,1.022778 -2.80859,1.068359 -1.21021,0.04562 -3.88869,0.130342 -5.95118,0.189454 -2.06252,0.05905 -3.75,0.479831 -3.75,0.933593 0,0.453767 0.47613,0.824219 1.0586,0.824219 0.5825,0 0.79379,0.43105 0.46875,0.957031 -0.32508,0.525974 -1.25118,0.702386 -2.0586,0.392578 -0.80738,-0.30983 -1.46875,-0.0073 -1.46875,0.671875 0,0.884251 1.15707,1.050454 4.07422,0.583985 2.89523,-0.462958 3.87236,-0.327696 3.37891,0.470703 -0.50823,0.822213 -0.12659,0.819102 1.42578,-0.01172 1.32382,-0.708495 2.12109,-0.759004 2.12109,-0.134765 0,1.600623 -4.0098,3.301997 -6.61132,2.804687 -2.32415,-0.444291 -3.07045,0.249868 -1.72071,1.599609 2.08048,2.080479 10.93706,-2.316649 9.9336,-4.93164 -0.35067,-0.91386 0.50583,-2.471332 2.1582,-3.925782 1.50731,-1.326615 2.20386,-2.427927 1.54883,-2.445311 z m -53.08203,4.029297 c 0.50765,0 0.77343,0.312994 0.77343,0.939453 0,0.550001 -1.0125,0.99269 -2.25,0.984375 -1.81942,-0.01239 -1.96296,-0.200505 -0.75,-0.984375 0.9694,-0.626459 1.71891,-0.939453 2.22657,-0.939453 z m 54.5039,3.433594 c -0.51532,-0.08103 -1.77462,0.539984 -3.02734,1.52539 -1.43169,1.126171 -3.8626,2.747547 -5.40235,3.603516 l -2.80078,1.556641 3.5,-0.566407 c 3.46126,-0.56121 3.47234,-0.553165 1,0.873047 -1.37499,0.793191 -3.2875,1.458862 -4.25,1.478516 -0.96249,0.01949 -1.75,0.223103 -1.75,0.453125 0,0.230022 -0.27369,1.130021 -0.60742,2 -0.67162,1.750208 -0.0973,1.872969 4.48242,0.957031 1.71874,-0.343752 3.125,-1.0278 3.125,-1.519531 0,-0.491717 -1.2375,-0.618523 -2.75,-0.283203 -2.42626,0.537902 -2.33798,0.393462 0.75,-1.230469 1.92499,-1.012339 3.5,-2.353015 3.5,-2.978516 0,-0.6255 1.12497,-2.049404 2.5,-3.164062 1.375,-1.114662 2.23079,-2.296925 1.90235,-2.626953 -0.0411,-0.04126 -0.0983,-0.06655 -0.17188,-0.07813 z m 0.21094,6.537109 c -0.79264,0.0175 -2.31521,0.6925 -3.38281,1.5 -1.36827,1.034899 -1.51583,1.459799 -0.5,1.4375 0.7926,-0.0175 2.31517,-0.6925 3.38281,-1.5 1.36823,-1.034903 1.51582,-1.459799 0.5,-1.4375 z m 4.61523,1.388672 c -0.76949,-0.08158 -2.95403,0.796047 -5.26171,2.148437 -2.63736,1.545589 -4.90735,2.724842 -5.04493,2.621094 -0.74834,-0.564722 -3.29589,-0.07313 -2.90429,0.560547 0.57925,0.937141 10.24186,0.996418 11.16992,0.06836 0.37527,-0.375231 -0.3741,-0.453362 -1.66602,-0.173828 l -2.34961,0.507813 2.26368,-1.998047 c 1.24486,-1.09841 2.81987,-2.194401 3.5,-2.4375 0.67997,-0.24308 0.91887,-0.784052 0.53125,-1.201172 -0.0485,-0.05214 -0.12836,-0.08405 -0.23829,-0.0957 z m -71.67773,2.146484 c -7.46855,0.107602 -15.8473,1.068002 -16.81445,2.035156 -0.65877,0.658772 2.13612,2.394027 2.99804,1.861329 0.70602,-0.436335 15.38384,-0.813858 23.1875,-0.595703 3.06543,0.0857 4.74912,0.576121 4.7461,1.382812 -0.003,0.904539 -2.83623,1.308056 -10.25,1.460938 -12.68614,0.261563 -15.5807,0.786132 -18.7461,3.390624 l -2.5,2.056641 7.20899,-0.517578 c 7.17978,-0.51504 7.21173,-0.505055 8.67187,2.421875 l 1.4668,2.9375 h -3.42383 c -2.48337,0 -3.42383,0.44278 -3.42383,1.61328 0,1.34851 0.78025,1.50804 4.75,0.9707 9.1584,-1.23968 17.51371,-3.87589 17.98438,-5.675777 0.2595,-0.992341 1.82601,-1.977561 3.70508,-2.330078 2.16525,-0.406197 3.64126,-1.457367 4.4082,-3.140625 1.68722,-3.702992 1.45431,-4.312097 -1.59766,-4.177734 -1.51249,0.0666 -4.54997,-0.693654 -6.75,-1.689454 -2.69457,-1.219655 -6.77401,-1.869416 -12.5,-1.99414 -1.00553,-0.0219 -2.05415,-0.02511 -3.12109,-0.0098 z M -347.01367,87.5 c 0.5585,0 1.27312,0.675001 1.58984,1.5 0.31673,0.824999 0.42096,1.5 0.23047,1.5 -0.19037,0 -0.9071,-0.675001 -1.5918,-1.5 -0.71754,-0.86459 -0.81381,-1.5 -0.22851,-1.5 z m 65.78906,2.294922 c -1.32761,0.03875 -10.56055,12.696778 -10.56055,14.587888 0,0.52396 2.36248,2.33041 5.25,4.01367 2.88749,1.68327 5.45198,3.06994 5.69727,3.08204 0.2454,0.0121 -0.9921,-1.46171 -2.75,-3.2754 -1.7579,-1.81361 -3.19727,-4.01797 -3.19727,-4.89843 0,-0.88047 1.36109,-4.187486 3.02344,-7.347659 1.66235,-3.160169 2.85039,-5.917302 2.64063,-6.126953 -0.0258,-0.0258 -0.0607,-0.03641 -0.10352,-0.03516 z m 95.06055,0.320312 c -0.39961,0.001 -1.07722,0.291218 -1.84375,0.828125 -1.22238,0.856181 -3.02239,1.556641 -4,1.556641 -1.77683,0 -2.44304,1.462167 -1.02735,2.253906 0.41239,0.230703 0.27692,0.316887 -0.30078,0.191406 -0.57774,-0.125462 -2.15271,0.380833 -3.5,1.126954 -1.34729,0.74612 -3.12422,1.352569 -3.94922,1.347656 -0.82499,-0.0048 0.23129,-0.919697 2.34571,-2.035156 2.11442,-1.115464 3.6022,-2.270885 3.30664,-2.566407 -0.8417,-0.8417 -8.59672,3.046017 -8.62696,4.324219 -0.0445,1.97218 2.98394,2.404105 5.98243,0.853516 1.81742,-0.93981 3.10556,-1.120939 3.49414,-0.492188 0.33868,0.547983 -0.0859,0.996094 -0.94336,0.996094 -0.85746,0 -1.5586,0.449999 -1.5586,1 0,0.55 0.33751,1.00067 0.75,1 1.13545,-0.002 6.25,-4.605038 6.25,-5.625 0,-0.49121 0.90001,-1.455615 2,-2.142578 1.10004,-0.686959 2,-1.720342 2,-2.296875 0,-0.216919 -0.13914,-0.320937 -0.3789,-0.320313 z m -11.07617,0.898438 c -0.13594,-0.01577 -0.49493,0.02291 -1.04493,0.117187 -1.09999,0.188561 -3.91247,0.347532 -6.25,0.355469 -2.33748,0.0075 -4.25,0.463671 -4.25,1.013672 0,0.550001 2.25002,1 5,1 2.74999,0 5,-0.416101 5,-0.925781 0,-0.50967 0.56247,-1.121013 1.25,-1.357422 0.34375,-0.118205 0.43087,-0.187355 0.29493,-0.203125 z M -227.5957,92.5 c -3.54675,0 -6.18946,0.87345 -6.18946,2.044922 0,0.456605 1.68748,0.625469 3.75,0.375 2.8797,-0.349739 3.28585,-0.235821 1.75,0.492187 -1.09999,0.52142 -3.2375,0.978876 -4.75,1.017579 -2.60772,0.06665 -3.47442,1.011902 -2.14648,2.339843 0.33154,0.331537 1.56909,0.236099 2.75,-0.21289 2.62379,-0.997573 2.94865,-1.05299 6.39648,-1.072266 1.80401,-0.01005 2.30903,-0.295676 1.4668,-0.830078 -0.70764,-0.449087 -0.99596,-1.563724 -0.64258,-2.484375 C -224.6993,92.836667 -225.18059,92.5 -227.5957,92.5 Z m -111.91992,3.589844 c 1.45944,0.01186 2.86371,0.27524 4.13085,0.804687 1.91063,0.798293 4.40265,1.208803 5.53711,0.91211 1.1345,-0.296655 2.0625,-0.27887 2.0625,0.03906 0,0.317949 -1.68751,1.036536 -3.75,1.597656 -5.18237,1.409933 -12.25,8.044703 -12.25,11.500003 0,1.64217 -0.41249,2.42096 -1.06836,2.01562 -0.58767,-0.36309 -0.82643,-1.29117 -0.53125,-2.06054 0.29503,-0.76937 0.1497,-1.39844 -0.32421,-1.39844 -1.44046,0 -1.99163,2.68415 -0.79688,3.87891 0.82904,0.82913 0.8007,1.12109 -0.10937,1.12109 -0.6773,0 -1.48009,-0.64723 -1.78321,-1.4375 -0.30327,-0.79027 -1.0763,-1.23482 -1.71875,-0.98828 -1.47095,0.56445 -4.06973,-5.11311 -3.07617,-6.7207 0.49962,-0.80845 0.21109,-0.99069 -0.89453,-0.56641 -0.89764,0.34442 -1.89881,0.19498 -2.22461,-0.33203 -0.32568,-0.52701 0.61309,-1.41659 2.08594,-1.97656 1.4728,-0.55996 3.80735,-1.90701 5.18945,-2.994147 2.83694,-2.231548 6.31057,-3.420614 9.52149,-3.394531 z m 89.73242,1.007812 c 0.24642,-0.0019 0.48559,0.03521 0.69922,0.117188 1.24524,0.47783 1.0807,0.836154 -0.82422,1.802734 -4.1689,2.115352 -7.28991,2.428192 -9.30274,0.933594 -1.05985,-0.786981 -1.61588,-1.741526 -1.23437,-2.123047 0.3815,-0.381521 1.22612,-0.162557 1.87695,0.488281 1.62607,1.626063 5.28742,1.487599 6.73438,-0.255859 0.49317,-0.59421 1.31152,-0.957217 2.05078,-0.962891 z M -188.78906,98.5 c -0.4249,0 -1.07158,1.58706 -1.43555,3.52734 -0.36401,1.94028 -1.05,3.28796 -1.52539,2.99414 -0.84129,-0.51993 -2.69772,3.85075 -5.08789,11.97852 -0.64698,2.2 -3.15063,7.72395 -5.5625,12.27539 -2.41183,4.55144 -4.3767,8.60144 -4.36914,9 0.009,0.39856 1.2462,-1.18913 2.75,-3.52734 1.50376,-2.33822 3.55438,-4.51587 4.55664,-4.83985 1.08574,-0.35096 1.59583,-1.17995 1.26172,-2.05078 -0.31419,-0.81851 -0.12597,-1.19184 0.42773,-0.84961 0.54369,0.33596 0.99019,0.47075 0.99219,0.30078 0.002,-0.16996 1.3881,-3.68359 3.08008,-7.80859 3.17484,-7.74022 6.27648,-21 4.91211,-21 z m -136.19141,2.13477 c 2.3674,-0.001 4.35549,0.35457 5.01758,1.15234 1.08979,1.31308 0.8001,1.63227 -2.02344,2.2207 -5.53878,1.15429 -15.04015,4.42153 -17.44922,6 -4.28334,2.80657 -4.80029,0.69838 -0.67773,-2.76367 1.46929,-1.23387 3.51245,-3.04984 4.54101,-4.03516 1.64977,-1.58043 6.64614,-2.5723 10.5918,-2.57421 z m 48.75391,0.86523 c -0.24253,0 -0.71882,0.45 -1.0586,1 -0.33993,0.55 -0.14105,1 0.44141,1 0.58246,0 1.05859,-0.45 1.05859,-1 0,-0.55 -0.19876,-1 -0.4414,-1 z m -2.90235,2.27734 c -1.32199,0.0479 -1.35053,0.38663 -0.60156,1.28907 1.31713,1.58705 2.02984,1.7216 4.36328,0.82617 2.62292,-1.00651 1.78363,-1.88172 -1.99023,-2.07617 -0.74759,-0.0385 -1.33082,-0.055 -1.77149,-0.0391 z m -35.29101,5.06836 c -0.15157,-0.0229 -0.25516,0.34222 -0.28516,1.07032 -0.0434,1.05417 0.19317,1.64479 0.52539,1.3125 0.33222,-0.3323 0.36691,-1.19415 0.0781,-1.91602 -0.1197,-0.29915 -0.22742,-0.45303 -0.31836,-0.4668 z m 43.32617,1.24219 c -0.46148,0.007 -0.81846,0.13877 -1.07617,0.39649 -0.68704,0.68719 -0.60796,1.01562 0.24414,1.01562 0.69245,0 0.95022,0.49983 0.57226,1.11133 -0.37791,0.6115 -0.0665,1.5239 0.69141,2.02734 0.75798,0.50343 2.72696,0.6496 4.37695,0.32422 1.64999,-0.32538 4.46248,-0.84669 6.25,-1.1582 4.62664,-0.80627 4.04123,-2.22017 -0.6582,-1.58985 -2.54415,0.34125 -5.05013,-0.047 -7.18359,-1.11132 -1.3861,-0.69149 -2.44766,-1.02753 -3.2168,-1.01563 z m 78.06641,1.78906 c 0.0899,0.0454 0.14207,0.25215 0.15625,0.62305 0.0302,0.825 -0.38089,2.175 -0.91407,3 -1.18129,1.82797 -1.18129,0.24909 0,-2.5 0.35419,-0.82421 0.60798,-1.19871 0.75782,-1.12305 z m -5.02735,2.62305 c -0.22265,0 -2.80618,4.8375 -5.74023,10.75 -2.93405,5.9125 -5.70675,10.90064 -6.16211,11.08398 -0.45528,0.18335 -0.82813,0.74585 -0.82813,1.25 0,1.71142 0.85207,0.92577 3.91016,-3.60546 4.25322,-6.30209 10.21995,-19.47852 8.82031,-19.47852 z m 2.80664,3.50977 c 0.0959,0.0272 0.18169,0.14287 0.25196,0.35351 0.24049,0.72144 -0.04,1.78804 -0.6211,2.36914 -0.74188,0.74207 -0.87053,0.35085 -0.43554,-1.3125 0.221,-0.84511 0.48026,-1.3394 0.70507,-1.4082 0.0337,-0.0103 0.0676,-0.0109 0.0996,-0.002 z m -139.08789,2.97265 c -0.24539,0.0241 -0.46093,0.13086 -0.64844,0.31836 -0.66661,0.66667 -0.3004,1.69961 1.09961,3.09961 2.20177,2.20176 10.09961,3.06157 10.09961,1.09961 0,-0.55 -1.35001,-1 -3,-1 -1.71428,0 -3.89961,-0.89961 -5.09961,-2.09961 -0.875,-0.87499 -1.60677,-1.34635 -2.19531,-1.41406 -0.0883,-0.0102 -0.17406,-0.0118 -0.25586,-0.004 z m 129.04297,4.10547 c -0.31069,-0.0887 -1.89879,1.94873 -4.00976,5.20899 -2.59813,4.01256 -4.9552,7.06422 -5.23829,6.78124 -0.28297,-0.28289 0.25773,-1.69292 1.20118,-3.13281 0.94344,-1.43988 1.48633,-2.84772 1.20703,-3.12695 -0.72359,-0.72359 -5.44188,6.99311 -6.25391,10.22852 h 0.002 c -0.52074,2.07469 -0.35468,2.59955 0.70899,2.22851 0.827,-0.28843 1.27473,-1.55873 1.10351,-3.13086 -0.15832,-1.45481 0.1652,-2.64453 0.71875,-2.64453 0.55371,0 0.74642,0.675 0.42969,1.5 -0.31676,0.825 -0.19009,1.48614 0.28125,1.46875 1.17763,-0.0435 8.97275,-11.88713 9.85156,-14.96875 0.0735,-0.25781 0.0697,-0.39165 -0.002,-0.41211 z m -89.80273,11.33789 c -0.0882,-0.008 -0.15143,0.0151 -0.18555,0.0703 -0.87606,1.41744 0.45892,3.40267 4.20508,6.25391 3.94635,3.00364 4.29101,3.15802 4.29101,1.91016 0,-1.31993 -6.98721,-8.11775 -8.31054,-8.23438 z m 63.75781,10.48047 c -0.49852,0.0264 -0.32193,1.135 0.91797,3.02734 2.21427,3.37968 2.0585,4.25984 -0.36524,2.06641 -3.26759,-2.95712 -2.2725,-0.37269 1.33204,3.45898 1.83263,1.9482 5.71117,7.35262 8.61914,12.01172 5.17092,8.28483 5.27487,8.59906 4.6875,14.21875 -0.33041,3.16032 -0.28363,6.54677 0.10351,7.52735 0.49134,1.24463 0.94858,0.27371 1.51563,-3.2168 0.44674,-2.75 1.21605,-6.49827 1.70898,-8.33008 0.75594,-2.80926 0.65454,-3.23754 -0.64648,-2.73828 -1.0831,0.41564 -1.37014,0.14135 -0.96289,-0.91992 0.31884,-0.83124 0.23265,-1.51172 -0.19141,-1.51172 -0.4241,0 -1.58202,-2.25646 -2.57422,-5.01562 -0.9922,-2.75923 -3.66838,-7.47795 -5.94726,-10.48438 -2.27895,-3.00644 -4.97565,-6.62883 -5.99219,-8.05078 -1.02115,-1.42838 -1.81734,-2.06347 -2.20508,-2.04297 z m -48.69531,4.02148 c -1.06174,0.0122 -2.22094,0.50685 -4.06641,1.59571 -2.02715,1.19606 -3.68555,2.59126 -3.68555,3.09961 0,0.50835 1.1363,0.17964 2.52539,-0.73047 2.35015,-1.53994 2.65283,-1.54087 4.35547,0 2.02103,1.82902 5.11914,1.21053 5.11914,-1.02149 0,-0.77795 -1.04162,-1.8888 -2.31445,-2.46875 -0.69524,-0.31677 -1.29655,-0.4819 -1.93359,-0.47461 z m 44.66601,8.57227 c -0.88203,0 0.27807,2.29776 3.08399,6.10938 2.47385,3.36044 4.5465,7.298 4.60547,8.75 0.059,1.45193 0.14939,4.10312 0.20117,5.89062 0.0517,1.7875 0.45305,3.25 0.89258,3.25 0.43963,0 0.79882,1.19934 0.79882,2.66602 0,4.33783 1.08509,1.96662 1.97657,-4.32227 0.74725,-5.27161 0.5782,-6.28384 -1.72852,-10.34375 -3.69676,-6.50642 -8.19759,-12 -9.83008,-12 z m -30.0039,2.18555 c -1.91545,-0.0236 -2.41407,0.34265 -2.41407,1.32617 0,1.01773 -0.4513,1.32845 -1.23242,0.8457 -1.62546,-1.00458 -4.76758,-1.2119 -4.76758,-0.31445 0,1.08611 -5.33793,0.86818 -6.75,-0.27539 -0.90228,-0.73075 -1.25,-0.56182 -1.25,0.60937 0,2.19899 -1.97872,2.07815 -2.07812,-0.12695 -0.0629,-1.39395 -0.19556,-1.4448 -0.65039,-0.25 -0.83966,2.2058 -2.60692,3.06834 -3.47852,1.69727 -0.53601,-0.84332 -0.766,-0.8607 -0.77734,-0.0586 -0.008,0.62629 -1.62955,1.44218 -3.60352,1.8125 -5.76956,1.08238 -8.24122,2.62288 -9.36133,5.83594 -1.17148,3.36076 -1.36325,7.73361 -0.44335,10.13086 0.33384,0.86999 1.00885,1.58203 1.5,1.58203 1.12059,0 1.11527,-0.2853 -0.0684,-3.39844 -0.61573,-1.61946 -0.61573,-2.74446 0,-3.125 0.52898,-0.32693 0.96093,0.24611 0.96093,1.27344 0,1.02734 0.70841,2.74097 1.57422,3.80859 0.86574,1.06761 1.28988,1.37891 0.94141,0.69141 -0.34825,-0.6875 -0.15665,-1.25 0.42578,-1.25 0.58246,0 1.05859,0.45 1.05859,1 0,0.55 0.45911,1 1.01954,1 0.58716,0 0.7699,-1.16492 0.43164,-2.75 -0.53443,-2.50288 -0.45821,-2.59274 0.84179,-1 2.16284,2.64984 2.58605,2.13006 1.62696,-2 -1.1799,-5.08164 -1.1404,-10.25 0.0801,-10.25 0.55,0 1,1.15637 1,2.56836 0,1.4267 1.44384,4.30494 3.25,6.48047 3.30505,3.98105 5.43152,5.16886 4.38868,2.45117 -0.31662,-0.825 -0.11211,-1.5 0.45312,-1.5 0.5653,0 0.74798,-0.45 0.4082,-1 -0.33993,-0.55 0.084,-1 0.94141,-1 1.90447,0 1.914,-0.2176 0.16797,-4.39648 -0.79075,-1.89255 -1.04112,-3.90324 -0.57813,-4.65235 0.52487,-0.8493 1.26949,0.88388 2.0918,4.86524 1.37968,6.6797 2.48814,7.7823 3.44727,3.43359 1.01321,-4.59327 1.26917,-4.88925 1.35156,-1.55859 0.0434,1.75503 0.59675,3.51068 1.23047,3.90234 0.82983,0.51285 0.9969,-0.4502 0.5957,-3.44141 -0.31812,-2.37107 -0.16893,-3.913 0.34766,-3.59375 0.49769,0.30758 0.90429,1.40633 0.90429,2.44141 0,1.03508 0.45001,2.16007 1,2.5 1.55864,0.9633 1.14539,-1.58379 -1.03906,-6.39844 -1.09769,-2.41939 -1.7933,-4.60127 -1.54687,-4.84765 0.71882,-0.71884 4.58593,7.46734 4.58593,9.70703 0,1.1219 0.43603,2.03905 0.96875,2.03906 0.53288,0 0.79804,-0.5625 0.58789,-1.25 -0.97326,-3.18436 -1.43461,-7.74849 -0.78125,-7.73828 0.39874,0.006 1.62492,1.88786 2.72461,4.18164 1.37677,2.87178 2.10545,3.62569 2.33789,2.41797 0.31794,-1.65097 0.41936,-1.64856 1.73633,0.0664 1.22525,1.59574 1.25846,1.38777 0.26758,-1.67773 -0.62226,-1.925 -1.5579,-4.04779 -2.08008,-4.7168 -0.52203,-0.66901 -0.73533,-1.79401 -0.47265,-2.5 0.48385,-1.30017 4.64901,6.66413 4.68945,8.9668 0.0121,0.6875 0.48055,1.25 1.04102,1.25 1.34499,0 0.24497,-4.62472 -2.06836,-8.69336 -1.09856,-1.93211 -1.33505,-3.00754 -0.59766,-2.72461 1.3087,0.5022 4.10493,5.48824 5.15039,9.18359 0.35237,1.2455 1.039,2.01739 1.52539,1.7168 0.48643,-0.3006 0.63023,-1.20628 0.32031,-2.01367 -0.3098,-0.80738 -0.0639,-1.46875 0.54493,-1.46875 0.60878,0 1.16735,1.0125 1.24218,2.25 l 0.13672,2.25 0.42774,-2.21289 c 0.55725,-2.87763 -2.39748,-9.05458 -4.9961,-10.44531 -1.11859,-0.59865 -4.20945,-1.27868 -6.86914,-1.51172 -0.98732,-0.0865 -1.78339,-0.13668 -2.42187,-0.14453 z m -0.0488,4.16015 c 0.0909,0.0138 0.19859,0.16765 0.31836,0.4668 0.28875,0.72187 0.25406,1.58372 -0.0781,1.91602 -0.33248,0.33229 -0.56885,-0.25835 -0.52539,-1.3125 0.03,-0.7281 0.1336,-1.09327 0.28516,-1.07032 z m -37.6875,3.48047 c -0.28085,0.0181 -0.68779,0.38285 -1.1875,1.19141 -0.34545,0.55904 -0.96901,0.80501 -1.38672,0.54687 -0.41768,-0.25815 -2.15611,0.80594 -3.86328,2.36524 -3.90822,3.56961 -4.89531,8.28871 -2.78516,13.32031 1.77755,4.23851 4.09488,5.32903 2.51953,1.18555 -1.31096,-3.44839 -1.24004,-10.43555 0.10547,-10.43555 0.68432,0 0.83338,1.12369 0.40625,3.06836 -0.6799,3.09559 1.46136,6.93164 3.86914,6.93164 0.64063,0 0.58132,-0.46364 -0.15429,-1.19922 -0.65999,-0.66 -1.16084,-2.5725 -1.11133,-4.25 l 0.0918,-3.05078 0.9375,3.25 c 1.33648,4.63524 2.11886,4.01649 1.35547,-1.07422 -0.43884,-2.92632 -0.1509,-5.51179 0.88867,-8 0.94282,-2.25646 0.93232,-3.88946 0.31446,-3.84961 z m 25.75195,2.97071 c 0.0776,-0.0419 0.16857,0.10779 0.26367,0.47265 0.25285,0.97297 0.2369,2.32297 -0.0371,3 -0.2739,0.67703 -0.47983,-0.11953 -0.46093,-1.76953 0.0127,-1.03125 0.10502,-1.63342 0.23437,-1.70312 z m 134.9082,3.33593 c -0.0683,-0.0109 -0.11601,-0.009 -0.14062,0.004 -0.0656,0.0346 0.0277,0.1561 0.30273,0.37109 7.85851,6.14367 17.86673,13.49389 18.38086,13.49805 0.33986,0.003 2.08162,1.3735 3.86914,3.04883 1.78749,1.67534 3.26431,2.68646 3.28321,2.24609 0.0183,-0.44038 0.81477,0.0992 1.77148,1.19922 0.95671,1.1 3.97932,3.55254 6.7168,5.44922 2.73747,1.89668 5.20336,3.69669 5.47851,4 0.275,0.30332 2.63752,2.26787 5.250004,4.36719 3.901568,3.13516 4.745074,4.3855 4.714844,7 l -0.03516,3.18359 -1.429687,-2.5 c -1.411238,-2.46849 -1.428875,-2.47163 -1.462891,-0.25 -0.0195,1.2375 -0.561474,2.25 -1.203125,2.25 -0.641764,0 -0.903669,-0.26223 -0.582031,-0.58398 0.811389,-0.81136 -1.24108,-6.41602 -2.349609,-6.41602 -0.496175,0 -0.902345,1.125 -0.902345,2.5 0,1.375 -0.45,2.5 -1,2.5 -0.54999,0 -1,-0.8443 -1,-1.87695 0,-1.03265 -0.62936,-2.40112 -1.40039,-3.04102 -0.77102,-0.63991 -1.68013,-2.27061 -2.01953,-3.62305 -0.33944,-1.35244 -1.1079,-2.45898 -1.70703,-2.45898 -0.63141,0 -0.84992,0.94857 -0.52148,2.25781 0.31158,1.24207 0.14175,2.92957 -0.37696,3.75 -0.71444,1.13037 -0.95193,0.76552 -0.97461,-1.50781 -0.0168,-1.65 -0.46682,-3.675 -1,-4.5 -0.74997,-1.1604 -0.97303,-0.84907 -0.98437,1.37305 -0.013,2.43925 -0.24185,2.6841 -1.51563,1.62695 -0.82499,-0.68469 -1.5,-1.8654 -1.5,-2.62305 0,-0.75765 -0.52134,-1.26445 -1.16015,-1.12695 -0.63882,0.1375 -1.42647,-0.78863 -1.75,-2.05859 -0.32368,-1.26996 -1.02225,-2.24893 -1.55078,-2.17579 -0.52853,0.0732 -1.28439,-0.6882 -1.67969,-1.6914 -0.48726,-1.23638 -0.74686,-0.53558 -0.80469,2.17578 -0.0635,2.96684 -0.33571,3.61256 -1.05469,2.5 -0.53317,-0.825 -0.97681,-2.9625 -0.98437,-4.75 -0.0155,-3.29141 -1.9825,-4.72738 -2.05469,-1.5 -0.0519,2.32183 -2.96094,-4.42299 -2.96094,-6.86523 0,-1.03685 -0.3375,-1.88573 -0.75,-1.88672 -0.41068,-0.001 -0.60783,5.05493 -0.43359,11.23437 0.17416,6.17943 0.0288,10.94668 -0.32422,10.59375 -1.02829,-1.02832 -1.33242,-3.77761 -1.41406,-12.74219 -0.0421,-4.62915 -0.37097,-8.12515 -0.72852,-7.76757 -0.35773,0.3576 -0.58567,3.47139 -0.50781,6.91797 0.17681,7.84479 -1.36681,5.74759 -2.10352,-2.85743 -0.53202,-6.21447 -2.09591,-9.67407 -6.60742,-14.62695 -3.38226,-3.7131 -4.56576,-3.47118 -2.44726,0.5 0.95357,1.7875 1.76078,3.475 1.79101,3.75 0.0315,0.275 0.34867,0.95592 0.70508,1.51367 1.73091,2.70918 2.97739,14.61496 2.35547,22.48633 -0.95875,12.13428 -3.33365,27.29771 -5.5,35.11523 -1.02452,3.6976 -1.6511,6.93488 -1.39258,7.19336 0.74801,0.74803 -2.48231,12.73414 -4.83594,17.94141 -0.30078,0.66549 -0.62898,1.28259 -0.96093,1.85742 h 5.55078 l 0.0527,-0.10742 c 1.56431,-3.14271 6.00664,-17.87949 7.38477,-24.5 0.57245,-2.75 1.54921,-10.175 2.16992,-16.5 1.59991,-16.30286 2.04217,-19.81967 2.58789,-19.69922 0.0364,0.008 0.0737,0.0307 0.11133,0.0684 0.67385,0.67383 0.5196,16.05172 -0.31836,31.63086 -0.40879,7.59873 -0.28367,11.16076 0.37109,10.5 0.97807,-0.98706 3.67677,-32.94538 2.89649,-34.30078 -0.22145,-0.38472 -0.008,-1.59922 0.47265,-2.69922 0.52286,-1.19698 0.75211,6.32105 0.57032,18.72266 -0.16725,11.39679 -0.0692,20.48522 0.21875,20.19726 0.28796,-0.28797 1.30047,-2.86383 2.25,-5.72265 l 1.72656,-5.19727 -0.19531,7.25195 c -0.1073,3.98874 0.0418,7.251 0.33203,7.25 0.73674,-0.003 3.59866,-3.43374 4.26367,-5.11133 0.34337,-0.86598 0.58172,-0.58863 0.63086,0.73633 0.0434,1.17015 0.79961,2.72696 1.68164,3.45899 1.16084,0.96358 1.46131,2.39366 1.08789,5.17773 -0.35709,2.66238 -0.15806,3.72489 0.64648,3.45703 0.63916,-0.21279 1.29893,-1.2483 1.46485,-2.30273 0.16584,-1.05442 0.70396,-2.81797 1.19726,-3.91797 0.49331,-1.1 1.09241,-2.9 1.33204,-4 0.23929,-1.1 0.48886,0.83331 0.55273,4.29492 0.0994,5.39391 0.36447,6.25183 1.85742,6 1.29744,-0.21885 1.89301,0.59836 2.33008,3.20508 0.82636,4.92855 2.20549,0.98064 3.51562,-10.05859 1.04947,-8.84153 1.71084,-7.17203 1.16016,2.92578 -0.57369,10.51979 0.80723,10.4162 1.84766,-0.13867 0.36714,-3.72471 1.03141,-6.99833 1.47656,-7.27344 0.44511,-0.27512 0.62773,0.97362 0.40625,2.77344 -1.1235,9.12817 -1.2089,11.77148 -0.38281,11.77148 0.49765,0 0.904291,-0.64887 0.904291,-1.44141 0,-0.79254 0.370984,-1.66917 0.824218,-1.94921 0.453317,-0.28013 0.790819,0.46716 0.75,1.66015 -0.04285,1.25512 0.621124,2.30987 1.576172,2.50391 1.335459,0.27134 1.873062,-1.05878 2.81836,-6.96875 1.229593,-7.68737 2.818574,-13.43854 2.953125,-10.69141 0.04343,0.88743 -0.37881,4.02471 -0.9375,6.9707 -0.55869,2.94601 -1.084441,7.1007 -1.167969,9.23243 -0.0409,1.04365 -0.197609,2.02803 -0.414062,2.79101 h 8.996093 c 0.232927,-0.31757 0.58761,-0.68087 1.101563,-1.10742 0.598356,-0.4966 1.049178,-0.74414 1.5,-0.74414 0.450822,0 0.901644,0.24754 1.5,0.74414 0.420828,0.34926 0.799176,0.74701 1.072265,1.10742 h 3.257813 v -0.56445 c -1.205554,0.37923 -1.924879,-0.51295 -5.074219,-4.98633 -0.459666,-0.65294 -1.728407,0.18461 -3.322265,2.19336 -3.481701,4.38798 -4.664165,4.10319 -2.402344,-0.57812 1.965633,-4.06838 3.18212,-5.50072 5.794922,-5.66016 0.373257,-0.0228 0.774403,-0.0194 1.210937,0.006 0.498896,0.0288 1.043504,0.0857 1.642578,0.16601 0.899218,0.12062 1.591205,0.23064 2.150391,0.36719 v -2.0293 l -2.69336,-0.31836 c -2.674841,-0.31672 -5.292034,-0.14739 -5.816406,0.37696 -1.67142,1.67141 -1.989539,0.0775 -0.912109,-4.56641 0.931351,-4.01431 1.35436,-4.51367 3.820312,-4.51367 1.524964,0 2.771485,0.45 2.771485,1 0,2.0557 1.986102,0.90543 2.589844,-1.5 0.07947,-0.31665 0.159946,-0.5699 0.240234,-0.82422 v -5.27344 c -1.207857,-0.77999 -1.830078,-0.10922 -1.830078,2.0586 0,2.11265 -0.423093,2.43017 -2.998047,2.25 -1.648932,-0.11536 -2.999017,-0.5915 -3,-1.05664 -0.0031,-1.29858 3.335763,-6.6543 4.148437,-6.6543 1.130458,0 2.530423,0.52022 3.679688,1.21875 v -2.09766 l -1.269531,-0.53125 c -2.609991,-1.09054 -3.66533,-1.15436 -4.367188,-0.26367 -0.508875,0.64576 -1.134814,1.84883 -1.392578,2.67383 -0.257613,0.825 -0.733491,-0.46782 -1.056641,-2.87305 -0.764697,-5.69437 -0.412578,-6.98145 3.484375,-6.98633 0.556708,-6.3e-4 1.186064,0.0238 1.894532,0.0664 l 2.707031,0.16211 v -1.58984 c -0.828955,-0.11544 -2.200251,-0.4124 -4.496094,-0.92774 -3.392731,-0.76155 -4.368198,-1.51342 -5.25,-4.04297 -1.32102,-3.78907 -1.321425,-3.80859 -0.0918,-3.80859 0.991161,0 7.370017,4.65627 9.837891,6.98828 v -5.95312 c -4.142379,-2.34977 -12.714474,-8.69933 -16.205078,-12.23633 -5.085468,-5.1531 -23.289108,-19.18834 -31.515628,-24.29883 -0.88536,-0.55 -1.83423,-1.225 -2.10938,-1.5 -0.90421,-0.90424 -6.39761,-4.00576 -12.5,-7.05664 -2.1656,-1.0827 -3.68422,-1.73437 -4.16211,-1.81055 z m -82.9082,1.66407 c 0.0776,-0.0419 0.16857,0.10779 0.26367,0.47265 0.25285,0.97297 0.2369,2.32297 -0.0371,3 -0.2739,0.67703 -0.47983,-0.11953 -0.46093,-1.76953 0.0127,-1.03125 0.10503,-1.63342 0.23437,-1.70312 z m -29.69141,5.78515 c -16.69452,0.09 -24.80882,1.40608 -40.50781,6.56836 -5.09854,1.67656 -9.93608,2.79281 -10.75,2.48047 -0.81392,-0.31233 -1.48047,-0.20902 -1.48047,0.22852 0,0.43746 3.48753,1.49263 7.75,2.3457 10.25042,2.05144 16.68717,2.11913 24.9375,0.26172 8.24312,-1.85579 13.09584,-3.49104 20.8125,-7.01563 2.20003,-1.00485 6.47502,-2.07977 9.5,-2.38867 3.02502,-0.30888 5.38229,-1.0125 5.23828,-1.5625 -0.16106,-0.61608 -6.1118,-0.96858 -15.5,-0.91797 z m -0.99023,2.0918 c 0.76841,-0.0308 1.24408,0.0343 1.24219,0.20508 -0.0138,0.90079 -16.47026,5.88176 -23.42383,7.08984 -8.21673,1.42754 -12.24736,1.30327 -12.90039,-0.39844 -0.65409,-1.70453 5.18981,-3.16605 18.83398,-4.71093 4.95001,-0.56051 10.91252,-1.37563 13.25,-1.81055 1.16875,-0.21748 2.22964,-0.34421 2.99805,-0.375 z m 9.7832,11.70703 c -0.22604,0.007 -0.55479,0.22305 -1.02734,0.61523 -2.53765,2.10607 -35.47908,9.97512 -41.82227,9.99024 -5.45994,0.013 -5.79971,0.15277 -5.5,2.26367 0.25569,1.80038 1.05766,2.31082 4.01563,2.55664 2.90532,0.24142 3.56586,0.64779 3.08594,1.89844 -0.66618,1.73603 0.95081,1.66283 14.71679,-0.66992 7.40962,-1.25562 19.39281,-4.97439 18.59571,-5.77149 -0.2925,-0.2925 -1.78236,-0.0323 -3.3125,0.57813 -2.38322,0.95069 -13.92448,3.12733 -16.69922,3.15039 -1.91256,0.0158 0.52439,-1.3333 2.85742,-1.58203 1.34404,-0.1433 3.9326,-0.9305 5.75195,-1.74805 1.81935,-0.81754 5.78166,-2.23368 8.80664,-3.14844 10.10703,-3.05636 11,-3.56561 11,-6.25781 0,-1.31677 -0.092,-1.88698 -0.46875,-1.875 z m 37.0293,21.89062 c 0.51853,-0.021 -0.32513,2.38688 -2.49609,5.95118 -4.01526,6.59229 -8.41999,12.09923 -7.41992,9.27734 0.38976,-1.1 1.76394,-3.575 3.05468,-5.5 1.29079,-1.925 3.29371,-4.98198 4.44922,-6.79297 1.29973,-2.03707 2.10099,-2.92294 2.41211,-2.93555 z m 7.97852,1.0586 c 0.0633,-0.0181 0.1144,-0.0106 0.15234,0.0273 0.30346,0.30346 -0.63368,2.57547 -2.08203,5.04688 -2.66801,4.55259 -4.60938,6.53851 -4.60938,4.71484 0,-0.55 0.45777,-1.28218 1.01563,-1.62695 0.55786,-0.34478 1.93783,-2.44027 3.06836,-4.65625 0.98918,-1.939 2.01174,-3.37935 2.45508,-3.50586 z m 36.49414,5.66992 c -0.49342,0 -1.20742,1.0125 -1.58594,2.25 -0.67378,2.20292 -9.38351,20.60499 -16.0918,34 -1.85926,3.7125 -2.9014,6.75 -2.3164,6.75 0.58495,0 1.74656,-1.6875 2.58203,-3.75 0.83542,-2.0625 4.47508,-9.825 8.08789,-17.25 8.50628,-17.48196 10.42206,-22 9.32422,-22 z m 2.98047,0 c -0.55737,0 -1.01368,0.50429 -1.01368,1.11914 0,1.24753 -5.69405,14.10522 -13.10937,29.60352 -2.68997,5.62213 -4.88048,10.79713 -4.86914,11.5 0.0224,1.3621 10.5955,-20.02171 14.44922,-29.22266 1.26697,-3.025 3.0353,-7.1875 3.92968,-9.25 0.92383,-2.13 1.18891,-3.75 0.61329,-3.75 z m 2.04492,3 c -0.58247,0 -1.0586,0.45 -1.0586,1 0,0.55 0.19876,1 0.44141,1 0.24253,0 0.71881,-0.45 1.05859,-1 0.33993,-0.55 0.14106,-1 -0.4414,-1 z m -10.28321,1.92383 c -0.36556,-0.13969 -2.11613,2.56409 -4.06445,6.31055 -2.07817,3.99616 -5.97539,11.30482 -8.66211,16.24218 -2.68668,4.93736 -4.62645,9.39513 -4.31055,9.90625 0.3159,0.51111 1.75872,-1.50309 3.20704,-4.47656 1.44831,-2.97348 5.24169,-10.24111 8.42968,-16.15039 3.188,-5.90928 5.64255,-11.20369 5.45508,-11.76563 -0.0117,-0.0351 -0.0303,-0.0571 -0.0547,-0.0664 z m 20.04493,1.16601 c -0.11356,0.0178 -0.30369,0.15481 -0.57032,0.41016 -0.95501,0.9146 -4.23957,8.94781 -13.38867,32.74414 -0.87722,2.28159 -1.79169,4.30424 -2.59765,5.86328 h 1.55078 c 1.09457,-3.07744 3.07576,-8.23203 4.12304,-10.60742 0.91556,-2.07655 9.88279,-24.86312 10.82227,-27.5 0.22746,-0.63838 0.24986,-0.93989 0.0605,-0.91016 z m 2.82422,0.22071 c -0.19877,-0.19879 -2.07948,4.48758 -4.17969,10.41406 -3.91237,11.04014 -8.95523,23.15708 -11.67188,28.38281 h 1.85352 c 0.61552,-1.86286 1.67955,-4.59066 3.28711,-8.36719 4.37877,-10.28672 11.27168,-29.86889 10.71094,-30.42968 z m -9.96876,0.0332 c -0.20947,-0.20955 -2.32241,4.46375 -4.69531,10.38672 -2.3729,5.92297 -6.03819,14.32683 -8.14648,18.67383 -2.1083,4.34699 -3.83399,8.05947 -3.83399,8.25 0,0.19049 0.36786,0.3457 0.81641,0.3457 1.33856,0 16.80123,-36.7144 15.85937,-37.65625 z m -3.96484,0.0332 c -0.23157,-0.23153 -1.20751,1.63554 -2.16797,4.15039 -0.96041,2.51485 -4.81391,11.30103 -8.56445,19.52344 -3.7505,8.22242 -6.50846,14.94922 -6.12695,14.94922 1.44404,0 17.86465,-37.61776 16.85937,-38.62305 z m 6.25195,0.62305 c -0.44197,0 -1.12111,1.44735 -1.50976,3.2168 -0.38865,1.76944 -1.08129,3.90694 -1.53906,4.75 -0.45778,0.84305 -3.11948,7.1582 -5.91407,14.0332 -2.79454,6.875 -5.51136,13.28129 -6.03906,14.23633 -0.29468,0.53328 -0.54979,1.2194 -0.72656,1.87109 h 1.75195 c 0.93853,-2.4628 2.83962,-7.30594 5.58985,-14.17773 8.1609,-20.39119 9.40035,-23.92969 8.38671,-23.92969 z m 9.91211,1.90039 c -0.25926,-0.0602 -1.27737,2.23086 -2.46093,5.59961 -1.35266,3.85 -2.85364,8.125 -3.33594,9.5 -1.58909,4.53018 -6.56233,16.1695 -8.92774,21.10742 h 1.36915 c 0.46596,-1.47301 1.28798,-3.52972 2.61523,-6.52734 5.60088,-12.64986 6.01787,-13.6781 8.45703,-20.84961 1.32465,-3.89455 2.37972,-7.79009 2.3457,-8.65625 -0.004,-0.10827 -0.0255,-0.16523 -0.0625,-0.17383 z m 21.125,16.09961 c 0.55,0 1,0.42387 1,0.94141 0,0.51754 -0.45,1.21866 -1,1.55859 -0.54999,0.33992 -1,-0.0839 -1,-0.94141 0,-0.85745 0.45001,-1.55859 1,-1.55859 z m -23.32617,1.33984 c -0.19306,-0.19302 -2.10028,3.58858 -4.23828,8.4043 -2.40186,5.41002 -3.76707,8.47362 -4.66211,10.36328 h 1.65039 c 2.22999,-4.67623 7.58406,-18.43362 7.25,-18.76758 z"
       style="fill:#000000;stroke-width:0.999999"
       id="path452" />
  </g>
</svg>
